<?xml version="1.0" encoding="utf-8"?>
<!-- Generator: Adobe Illustrator 25.2.0, SVG Export Plug-In . SVG Version: 6.00 Build 0)  -->
<svg version="1.1" id="레이어_1" xmlns="http://www.w3.org/2000/svg" xmlns:xlink="http://www.w3.org/1999/xlink" x="0px"
	 y="0px" viewBox="0 0 400 400" style="enable-background:new 0 0 400 400;" xml:space="preserve">
<style type="text/css">
	.st0{fill:#040000;}
</style>
<g>
	<path class="st0" d="M72.11,316.58c-2.87,0-5.2,2.33-5.2,5.2s2.33,5.2,5.2,5.2h255.78c2.87,0,5.2-2.33,5.2-5.2s-2.33-5.2-5.2-5.2
		h-28.05v-19.47c6.49-0.54,17.96-2.71,25.4-11.03c9.41-10.52,7.97-26.87,7.42-30.98c-0.03-0.58-0.16-1.16-0.39-1.72
		c-0.68-1.65-2.16-2.82-3.89-3.13c5.9-10.2,4.76-23.04,4.28-26.61c-0.03-0.58-0.16-1.16-0.39-1.72c-0.68-1.66-2.17-2.82-3.91-3.13
		c5.92-10.21,4.77-23.06,4.3-26.64c-0.03-0.58-0.16-1.16-0.39-1.72c-0.76-1.85-2.52-3.1-4.52-3.21c-0.3-0.02-3.13-0.15-7.11,0.27
		v-16.64c0-2.87-2.33-5.2-5.2-5.2c-2.87,0-5.2,2.33-5.2,5.2v18.88c-4.7,1.59-9.5,4.16-13.2,8.3c-0.9,1.01-1.7,2.08-2.41,3.18
		c-0.71-1.1-1.51-2.17-2.41-3.18c-3.7-4.13-8.48-6.7-13.17-8.29v-18.89c0-2.87-2.33-5.2-5.2-5.2c-2.87,0-5.2,2.33-5.2,5.2v16.65
		c-4-0.43-6.84-0.29-7.14-0.28c-2,0.11-3.75,1.36-4.52,3.21c-0.22,0.54-0.35,1.11-0.38,1.68c-0.47,3.53-1.65,16.43,4.29,26.68
		c-1.74,0.31-3.22,1.47-3.91,3.13c-0.22,0.54-0.35,1.11-0.38,1.68c-0.48,3.53-1.65,16.41,4.27,26.65c-1.73,0.31-3.21,1.48-3.89,3.13
		c-0.23,0.54-0.35,1.11-0.38,1.68c-0.55,4.05-2.02,20.46,7.42,31.01c7.45,8.32,18.92,10.49,25.4,11.03v19.47h-84.22v-24.84
		c6.49-0.54,17.96-2.71,25.4-11.03c9.41-10.52,7.97-26.87,7.42-30.98c-0.03-0.58-0.16-1.16-0.39-1.72
		c-0.68-1.65-2.16-2.82-3.89-3.13c5.9-10.2,4.76-23.04,4.28-26.61c-0.03-0.58-0.16-1.16-0.39-1.71c-0.68-1.66-2.17-2.83-3.91-3.13
		c5.92-10.21,4.77-23.06,4.3-26.64c-0.03-0.58-0.16-1.16-0.39-1.72c-0.68-1.66-2.16-2.82-3.9-3.13c5.91-10.21,4.76-23.05,4.29-26.63
		c-0.03-0.58-0.16-1.16-0.39-1.71c-0.76-1.85-2.52-3.1-4.52-3.21c-0.3-0.02-3.14-0.15-7.13,0.27V134.2c0-2.87-2.33-5.2-5.2-5.2
		s-5.2,2.33-5.2,5.2v18.7c-4.69,1.59-9.48,4.16-13.19,8.3c-0.9,1.01-1.7,2.08-2.41,3.18c-0.71-1.1-1.5-2.17-2.41-3.18
		c-3.7-4.14-8.49-6.71-13.19-8.3v-18.7c0-2.87-2.33-5.2-5.2-5.2s-5.2,2.33-5.2,5.2v16.46c-3.98-0.43-6.82-0.29-7.13-0.27
		c-2,0.11-3.75,1.36-4.52,3.21c-0.22,0.54-0.35,1.11-0.38,1.68c-0.48,3.53-1.65,16.42,4.28,26.66c-1.73,0.31-3.21,1.48-3.9,3.13
		c-0.22,0.54-0.35,1.11-0.38,1.68c-0.48,3.53-1.65,16.43,4.29,26.68c-1.74,0.3-3.22,1.47-3.91,3.13c-0.22,0.54-0.35,1.11-0.38,1.68
		c-0.48,3.53-1.65,16.41,4.27,26.65c-1.73,0.31-3.21,1.48-3.89,3.13c-0.23,0.54-0.35,1.11-0.38,1.68
		c-0.55,4.05-2.02,20.46,7.42,31.02c7.45,8.32,18.92,10.49,25.4,11.03v24.84h-84.22v-19.47c6.49-0.54,17.96-2.71,25.4-11.03
		c9.41-10.52,7.97-26.87,7.42-30.98c-0.03-0.58-0.16-1.16-0.39-1.72c-0.68-1.65-2.16-2.82-3.89-3.13c5.9-10.2,4.76-23.04,4.28-26.61
		c-0.03-0.58-0.16-1.16-0.39-1.72c-0.68-1.66-2.17-2.82-3.91-3.13c5.92-10.21,4.77-23.06,4.29-26.64c-0.03-0.58-0.16-1.16-0.39-1.72
		c-0.76-1.85-2.52-3.1-4.52-3.21c-0.3-0.02-3.15-0.15-7.14,0.28v-16.65c0-2.87-2.33-5.2-5.2-5.2c-2.87,0-5.2,2.33-5.2,5.2v18.89
		c-4.69,1.59-9.47,4.16-13.17,8.29c-0.9,1.01-1.7,2.08-2.41,3.18c-0.71-1.1-1.5-2.17-2.41-3.18c-3.71-4.14-8.51-6.71-13.21-8.3
		v-18.88c0-2.87-2.33-5.2-5.2-5.2c-2.87,0-5.2,2.33-5.2,5.2v16.65c-3.98-0.43-6.81-0.29-7.11-0.27c-2,0.11-3.75,1.36-4.52,3.21
		c-0.22,0.54-0.35,1.11-0.38,1.68c-0.48,3.53-1.65,16.43,4.29,26.68c-1.74,0.31-3.22,1.47-3.91,3.13c-0.23,0.54-0.35,1.11-0.38,1.68
		c-0.48,3.53-1.65,16.41,4.27,26.65c-1.73,0.31-3.21,1.48-3.89,3.13c-0.22,0.54-0.35,1.11-0.38,1.68
		c-0.54,4.05-2.02,20.46,7.42,31.01c7.45,8.32,18.92,10.49,25.4,11.03v19.47H72.11z M280.41,253.18c-3.16-1.15-6.28-2.88-8.62-5.49
		c-4.46-4.99-5.35-13.01-5.22-18.45c2.61,0.22,6.05,0.73,9.41,1.9c0.4,0.16,0.8,0.31,1.2,0.45c2.72,1.09,5.31,2.64,7.3,4.87v0
		c4.35,4.86,5.18,12.88,4.9,18.72c-2.47-0.27-5.67-0.82-8.84-1.96C280.5,253.21,280.46,253.19,280.41,253.18z M308.77,253.21
		c-3.18,1.14-6.39,1.7-8.87,1.97c-0.28-5.84,0.56-13.86,4.9-18.72c1.99-2.23,4.59-3.78,7.31-4.87c0.39-0.14,0.79-0.29,1.18-0.44
		c3.37-1.18,6.81-1.69,9.42-1.91c0.12,5.45-0.76,13.46-5.22,18.45c-2.35,2.62-5.48,4.35-8.66,5.5
		C308.82,253.2,308.8,253.21,308.77,253.21z M317.5,279.15c-4.73,5.28-12.64,6.97-17.6,7.5c-0.28-5.84,0.55-13.86,4.9-18.73
		c1.91-2.13,4.37-3.64,6.96-4.73c0.65-0.23,1.31-0.47,1.96-0.74c3.22-1.07,6.48-1.55,8.99-1.76
		C322.84,266.14,321.96,274.16,317.5,279.15z M304.8,204.97c4.72-5.28,12.86-6.8,17.92-7.22c0.12,5.45-0.76,13.46-5.22,18.45
		c-4.73,5.28-12.64,6.97-17.6,7.5C299.62,217.86,300.45,209.84,304.8,204.97z M266.57,197.75c5.06,0.42,13.19,1.94,17.92,7.22
		c4.35,4.86,5.18,12.89,4.9,18.73c-4.96-0.53-12.87-2.21-17.6-7.5C267.33,211.21,266.45,203.2,266.57,197.75z M289.39,286.64
		c-4.96-0.53-12.87-2.21-17.6-7.5c-4.46-4.99-5.35-13-5.22-18.45c2.5,0.21,5.76,0.69,8.98,1.75c0.67,0.27,1.33,0.52,1.99,0.75
		c2.59,1.08,5.04,2.59,6.95,4.72C288.84,272.78,289.67,280.8,289.39,286.64z M185.35,247.64c-3-1.15-5.94-2.83-8.17-5.32
		c-4.46-4.99-5.35-13.01-5.22-18.45c2.61,0.22,6.05,0.73,9.41,1.9c0.4,0.16,0.81,0.31,1.21,0.45c2.71,1.09,5.31,2.64,7.3,4.87
		c4.35,4.86,5.18,12.89,4.9,18.73c-2.43-0.26-5.56-0.8-8.69-1.9C185.84,247.81,185.59,247.72,185.35,247.64z M213.97,247.91
		c-3.12,1.1-6.26,1.64-8.69,1.9c-0.28-5.84,0.55-13.86,4.9-18.73c1.99-2.23,4.59-3.78,7.31-4.87c0.4-0.14,0.79-0.29,1.19-0.45
		c3.37-1.17,6.8-1.69,9.42-1.91c0.12,5.45-0.76,13.46-5.22,18.45c-2.23,2.49-5.17,4.18-8.18,5.32
		C214.46,247.72,214.21,247.81,213.97,247.91z M189.87,199.6c4.35,4.86,5.18,12.89,4.9,18.73c-4.96-0.53-12.87-2.21-17.6-7.5
		c-4.46-4.99-5.35-13.01-5.22-18.45c2.51,0.21,5.79,0.69,9.02,1.77c0.63,0.26,1.27,0.5,1.9,0.72
		C185.48,195.94,187.95,197.46,189.87,199.6z M219.07,194.15c3.24-1.08,6.51-1.56,9.03-1.77c0.12,5.45-0.76,13.46-5.22,18.45
		c-4.73,5.28-12.64,6.97-17.6,7.5c-0.28-5.84,0.56-13.86,4.91-18.73c1.92-2.14,4.39-3.66,7-4.74
		C217.81,194.64,218.44,194.4,219.07,194.15z M222.88,273.77c-4.73,5.28-12.64,6.97-17.6,7.5c-0.28-5.84,0.55-13.86,4.9-18.73
		c1.88-2.1,4.31-3.6,6.86-4.68c0.72-0.25,1.44-0.52,2.16-0.81c3.19-1.05,6.41-1.52,8.89-1.73
		C228.22,260.76,227.34,268.78,222.88,273.77z M210.18,168.13c4.72-5.28,12.86-6.8,17.92-7.22c0.12,5.45-0.76,13.46-5.22,18.45
		c-4.73,5.28-12.64,6.97-17.6,7.5C205,181.02,205.83,172.99,210.18,168.13z M171.95,160.91c5.06,0.42,13.19,1.94,17.92,7.22
		c4.35,4.86,5.18,12.89,4.9,18.73c-4.96-0.53-12.87-2.21-17.6-7.5C172.71,174.37,171.83,166.36,171.95,160.91z M194.77,281.27
		c-4.96-0.53-12.87-2.21-17.6-7.5c-4.46-4.99-5.35-13-5.22-18.45c2.48,0.21,5.7,0.68,8.89,1.73c0.73,0.3,1.46,0.57,2.18,0.82
		c2.55,1.08,4.97,2.58,6.85,4.68C194.22,267.4,195.05,275.43,194.77,281.27z M91.17,253.17c-3.16-1.15-6.28-2.88-8.61-5.48
		c-4.46-4.99-5.35-13.01-5.22-18.45c2.61,0.22,6.05,0.73,9.41,1.9c0.4,0.16,0.8,0.31,1.2,0.45c2.72,1.09,5.31,2.64,7.3,4.87v0
		c4.35,4.86,5.18,12.88,4.91,18.72c-2.47-0.27-5.67-0.82-8.84-1.95C91.27,253.21,91.22,253.19,91.17,253.17z M119.54,253.21
		c-3.18,1.14-6.39,1.7-8.87,1.97c-0.28-5.84,0.56-13.86,4.9-18.72c1.99-2.23,4.59-3.78,7.31-4.87c0.39-0.14,0.79-0.29,1.18-0.44
		c3.37-1.18,6.81-1.69,9.42-1.91c0.12,5.45-0.76,13.46-5.22,18.45c-2.35,2.62-5.48,4.35-8.66,5.5
		C119.58,253.2,119.56,253.21,119.54,253.21z M128.26,279.15c-4.73,5.28-12.64,6.97-17.6,7.5c-0.28-5.84,0.55-13.86,4.9-18.73
		c1.91-2.13,4.37-3.64,6.96-4.73c0.65-0.23,1.31-0.47,1.96-0.74c3.22-1.07,6.48-1.55,8.99-1.76
		C133.6,266.14,132.72,274.16,128.26,279.15z M115.57,204.97c4.72-5.28,12.86-6.8,17.92-7.22c0.12,5.45-0.76,13.46-5.22,18.45
		c-4.73,5.28-12.64,6.97-17.6,7.5C110.39,217.86,111.22,209.84,115.57,204.97z M77.33,197.75c5.06,0.42,13.19,1.94,17.92,7.22
		c4.35,4.86,5.18,12.89,4.9,18.73c-4.96-0.53-12.87-2.21-17.6-7.5C78.09,211.21,77.21,203.2,77.33,197.75z M100.15,286.64
		c-4.96-0.53-12.87-2.21-17.6-7.5c-4.46-4.99-5.35-13-5.22-18.45c2.5,0.21,5.76,0.69,8.98,1.75c0.67,0.27,1.33,0.52,1.99,0.75
		c2.59,1.08,5.04,2.59,6.95,4.72C99.6,272.78,100.43,280.8,100.15,286.64z"/>
	<path class="st0" d="M200.03,147.82c2.87,0,5.2-2.33,5.2-5.2v-18.4c0-2.87-2.33-5.2-5.2-5.2s-5.2,2.33-5.2,5.2v18.4
		C194.83,145.49,197.15,147.82,200.03,147.82z"/>
	<path class="st0" d="M105.39,184.48c2.87,0,5.2-2.33,5.2-5.2v-18.4c0-2.87-2.33-5.2-5.2-5.2s-5.2,2.33-5.2,5.2v18.4
		C100.19,182.15,102.52,184.48,105.39,184.48z"/>
	<path class="st0" d="M294.66,184.48c2.87,0,5.2-2.33,5.2-5.2v-18.4c0-2.87-2.33-5.2-5.2-5.2c-2.87,0-5.2,2.33-5.2,5.2v18.4
		C289.46,182.15,291.79,184.48,294.66,184.48z"/>
</g>
<g>
	<path class="st0" d="M351.92,79.02c-8.13,0-14.74-6.61-14.74-14.74c0-1.66-1.35-3.01-3.01-3.01s-3.01,1.35-3.01,3.01
		c0,8.13-6.61,14.74-14.74,14.74c-1.66,0-3.01,1.35-3.01,3.01c0,1.66,1.35,3.01,3.01,3.01c8.13,0,14.74,6.61,14.74,14.74
		c0,1.66,1.35,3.01,3.01,3.01s3.01-1.35,3.01-3.01c0-8.13,6.61-14.74,14.74-14.74c1.66,0,3.01-1.35,3.01-3.01
		C354.92,80.37,353.58,79.02,351.92,79.02z M334.16,90.55c-1.74-2.86-4.14-5.26-7-7c2.86-1.74,5.26-4.14,7-7
		c1.74,2.86,4.14,5.26,7,7C338.31,85.29,335.9,87.7,334.16,90.55z M58.78,109.21c-5.42,0-9.82-4.41-9.82-9.82
		c0-1.38-1.12-2.51-2.51-2.51c-1.38,0-2.51,1.12-2.51,2.51c0,5.42-4.41,9.82-9.82,9.82c-1.38,0-2.51,1.12-2.51,2.51
		c0,1.38,1.12,2.51,2.51,2.51c5.42,0,9.82,4.41,9.82,9.82c0,1.38,1.12,2.51,2.51,2.51c1.38,0,2.51-1.12,2.51-2.51
		c0-5.42,4.41-9.82,9.82-9.82c1.38,0,2.51-1.12,2.51-2.51S60.17,109.21,58.78,109.21L58.78,109.21z M46.45,115.8
		c-1.08-1.61-2.47-3-4.08-4.08c1.61-1.08,3-2.47,4.08-4.08c1.08,1.61,2.47,3,4.08,4.08C48.92,112.8,47.54,114.19,46.45,115.8z"/>
</g>
<g>
	<path class="st0" d="M261.86,88.42c-3.59,0-6.52-2.92-6.52-6.52c0-0.73-0.6-1.33-1.33-1.33c-0.73,0-1.33,0.6-1.33,1.33
		c0,3.59-2.92,6.52-6.52,6.52c-0.73,0-1.33,0.6-1.33,1.33s0.6,1.33,1.33,1.33c3.59,0,6.52,2.92,6.52,6.52c0,0.73,0.6,1.33,1.33,1.33
		c0.73,0,1.33-0.6,1.33-1.33c0-3.59,2.92-6.52,6.52-6.52c0.73,0,1.33-0.6,1.33-1.33S262.59,88.42,261.86,88.42z M254.01,92.84
		c-0.77-1.26-1.83-2.33-3.09-3.09c1.26-0.77,2.33-1.83,3.09-3.09c0.77,1.26,1.83,2.33,3.09,3.09
		C255.84,90.51,254.78,91.58,254.01,92.84z M183.41,71.18c-3.78,0-6.86-3.08-6.86-6.86c0-0.77-0.63-1.4-1.4-1.4s-1.4,0.63-1.4,1.4
		c0,3.78-3.08,6.86-6.86,6.86c-0.77,0-1.4,0.63-1.4,1.4c0,0.77,0.63,1.4,1.4,1.4c3.78,0,6.86,3.08,6.86,6.86
		c0,0.77,0.63,1.4,1.4,1.4s1.4-0.63,1.4-1.4c0-3.78,3.08-6.86,6.86-6.86c0.77,0,1.4-0.63,1.4-1.4
		C184.81,71.8,184.19,71.18,183.41,71.18z M175.16,75.83c-0.81-1.33-1.93-2.45-3.25-3.25c1.33-0.81,2.45-1.93,3.25-3.25
		c0.81,1.33,1.93,2.45,3.25,3.25C177.09,73.38,175.97,74.5,175.16,75.83z M106,35.44c2.39,2.39,2.39,6.29,0,8.68
		c-0.82,0.82-0.82,2.14,0,2.96s2.14,0.82,2.96,0c2.39-2.39,6.29-2.39,8.68,0c0.82,0.82,2.14,0.82,2.96,0c0.82-0.82,0.82-2.14,0-2.96
		c-2.39-2.39-2.39-6.29,0-8.68c0.82-0.82,0.82-2.14,0-2.96c-0.82-0.82-2.14-0.82-2.96,0c-2.39,2.39-6.29,2.39-8.68,0
		c-0.82-0.82-2.14-0.82-2.96,0C105.19,33.3,105.19,34.62,106,35.44L106,35.44z M114.72,38.36c-0.13,0.94-0.13,1.9,0,2.84
		c-0.94-0.13-1.9-0.13-2.84,0c0.13-0.94,0.13-1.9,0-2.84C112.82,38.49,113.78,38.49,114.72,38.36z M349.76,185.75
		c3.09,1.37,4.49,5.01,3.12,8.1c-0.47,1.06,0.01,2.29,1.06,2.76c1.06,0.47,2.29-0.01,2.76-1.06c1.37-3.09,5.01-4.49,8.1-3.12
		c1.06,0.47,2.29-0.01,2.76-1.06s-0.01-2.29-1.06-2.76c-3.09-1.37-4.49-5.01-3.12-8.1c0.47-1.06-0.01-2.29-1.06-2.76
		c-1.06-0.47-2.29,0.01-2.76,1.06c-1.37,3.09-5.01,4.49-8.1,3.12c-1.06-0.47-2.29,0.01-2.76,1.06
		C348.23,184.05,348.71,185.28,349.76,185.75L349.76,185.75z M358.95,185.35c0.22,0.92,0.56,1.82,1.02,2.65
		c-0.92,0.22-1.82,0.56-2.65,1.02c-0.22-0.92-0.56-1.82-1.02-2.65C357.23,186.15,358.12,185.81,358.95,185.35z"/>
</g>
</svg>
