<?xml version="1.0" encoding="utf-8"?>
<!-- Generator: Adobe Illustrator 25.2.0, SVG Export Plug-In . SVG Version: 6.00 Build 0)  -->
<svg version="1.1" id="Capa_1" xmlns="http://www.w3.org/2000/svg" xmlns:xlink="http://www.w3.org/1999/xlink" x="0px" y="0px"
	 viewBox="0 0 512 512" style="enable-background:new 0 0 512 512;" xml:space="preserve">
<style type="text/css">
	.st0{fill:#333333;}
</style>
<g>
	<g>
		<g>
			<path class="st0" d="M504.4,85.6c-1.9-4.1-5.8-6.8-10.4-7.2c-15.8-1.1-36.9-1.5-50.1,3.2c1.1-11.5,0.4-24.7-0.6-35.2
				c-0.4-4.5-3.2-8.5-7.3-10.2c-4.1-1.7-8.8-1.1-12.4,1.7c-13.6,10.5-30.7,25.8-36.3,38.8c-1.9,4.1-3,8.1-3.6,11.9
				c-5.1-6.6-10.9-13-16-18.4c-3.2-3.2-7.7-4.5-12-3.4c-4.3,1.1-7.7,4.7-8.8,9c-4,16.6-8.1,39.3-4.3,53.1c0.8,2.4,1.5,4.9,2.4,7.2
				c-9.2-13.2-26.2-27.3-39.7-37.5c-4-3-9-3.4-13.6-1.5c-4.5,2.1-7.3,6.4-7.7,11.3c-0.4,5.8-0.6,11.5-0.8,16.8c0,3.8,3,7,6.8,7
				c0,0,0,0,0.2,0c3.8,0,6.8-3,7-6.8c0-4.9,0.4-10,0.6-15.1c20.5,15.4,34.6,29.6,39,39.2c7.2,15.4,4.7,28-6,32.9
				c-10.7,4.9-21.8-1.5-28.8-16.9c-1.3-3-2.4-7.2-3.4-12.2c-0.6-3.8-4.1-6.4-7.9-5.8c-3.8,0.6-6.4,4.1-5.8,7.9
				c0.9,6.4,2.4,11.7,4.3,15.8c1.3,3,2.8,5.8,4.5,8.3c-13.6-11.9-34.8-22.8-52-30.5c-4.7-2.1-10.4-1.5-14.5,1.7
				c-4.1,3.2-6.2,8.3-5.5,13.6c3,19.4,8.3,44.8,16.9,61.2c-1.9,1.9-4,3.8-5.8,5.8c-0.4,0.4-0.8,0.8-0.9,0.9
				c-15.2-6.6-32.4-11.9-44.4-15.2c-5.5-1.5-11.1,0.2-15.1,4.1c-4,4-5.3,9.8-3.6,15.2c1.7,5.5,4.1,13,7.3,21.3
				c-20.3,5.5-34.1,15.1-39.7,19.8c-6.8-1.3-13.6-0.4-19.8,2.8c-7.7,4-13.6,10.9-16.2,19.4c-3.6,11.9-0.6,24.3,7.2,32.8
				c-7,13.4-15.2,32.4-18.8,53.1c-0.8,3.8,1.9,7.3,5.6,8.1c0.4,0,0.8,0.2,1.1,0.2c3.4,0,6.2-2.4,6.8-5.6c3.2-18.3,10.4-35,16.6-47.4
				c0.6,0.2,1.1,0.4,1.7,0.6c1.7,0.6,29.6,10,72.1,15.8c-1.9,14.7-3.8,37.3-1.9,58.7c0.8,9.6,8.8,16.9,18.6,16.9h96.7
				c10,0,18.3-7.9,18.6-17.9c0.6-13.2,0.9-36.9-1.3-57.2c22.6-3.2,44.6-8.1,65.7-14.7c7.3,11.9,16,28.2,21.3,45.7
				c0.9,3,3.6,4.9,6.6,4.9c0.6,0,1.3,0,1.9-0.4c3.6-1.1,5.8-4.9,4.7-8.7c-5.3-18.1-13.9-34.8-21.5-47.2
				c11.9-7.7,17.7-23.2,13.2-37.6c-2.6-8.7-8.3-15.6-16-19.6c-2.6-1.3-5.5-2.3-8.3-2.8c6-2.4,11.5-4.9,15.6-7
				c4.7-2.3,7.9-6.8,8.1-12c0.4-5.3-2.3-10.2-6.8-13c-7.5-4.7-16-9.6-24.8-14.1c16-2.6,36.7-12.6,52.1-21.1c4.3-2.4,7-7,6.8-11.9
				c0-4.9-2.8-9.4-7-11.7c-3.6-1.9-7.5-4-11.5-5.8c13.6-2.3,30.3-10,43.1-16.6c4-2.1,6.6-6.2,6.6-10.7c0-4.5-2.3-8.7-6.2-10.9
				c-2.6-1.5-5.6-3-8.5-4.7c2.1-0.8,4.3-1.5,6.4-2.4c13-5.8,27.9-23.3,38.2-37.1C505.9,94.7,506.3,89.8,504.4,85.6z M400,82.2
				c3.2-7.5,14.1-19,29.9-31.6c1.5,17.5,0.9,31.8-1.5,40.3c-3.4,3-6,6.4-7.7,10c-0.9,1.7-1.5,3.6-1.9,5.3c-0.8,0.4-1.7,1.1-3,2.1
				c-3.4,1.7-7.2,1.7-10.7,0.2C396.6,104.4,394.7,94.8,400,82.2z M420.7,123.8c-0.9-0.2-1.9-0.2-2.8-0.2c0.8-0.6,1.5-0.9,2.1-1.5
				C420.1,122.7,420.3,123.3,420.7,123.8C420.5,123.8,420.5,123.8,420.7,123.8z M359.7,81.9c13.7,14.9,23,27.7,25,35.8
				c1.3,5.1,1.7,9.6,1.1,13.4c-4.3,3.6-9,7.7-13.9,12c-2.4,0-4.7-0.9-6.8-2.4c-4-2.8-7.2-8.1-9-15.2
				C353.7,117.2,355.2,101.4,359.7,81.9z M385.1,166.6c-3.2-0.6-6.2-0.9-9-0.9c-0.2,0-0.2,0-0.4,0c-2.8,0-5.5,0.2-8.1,0.6
				c3.6-3.6,7-6.8,10.4-10c0.6-0.2,0.9-0.2,1.5-0.4c0.6-0.2,1.1-0.4,1.7-0.6C381.7,159.4,383,163.2,385.1,166.6z M356.9,151.9
				c1.1,0.8,2.3,1.5,3.4,2.1c-2.1,1.9-4,4-6,6c-0.6-4.7-2.1-9.8-4.3-15.1C352,147.5,354.2,150,356.9,151.9z M334.8,202.5
				c0.6,5.1,2.6,10.2,5.8,14.5c-6.6-0.2-12.6,0.4-18.1,1.7C326.7,213,330.7,207.6,334.8,202.5z M321.1,197.4
				c-2.8,3.8-5.6,7.5-8.5,11.3c-1.5-5.8-4.3-11.9-8.8-18.3C309.4,194.8,315.4,196.9,321.1,197.4z M235.6,161.9c0-0.2,0-0.2,0.2-0.4
				c0.2-0.2,0.4-0.2,0.4,0c27.3,12.2,47.2,24.8,54.6,34.6c9.4,12.4,11.9,24.5,7,33.1c-2.8-1.9-5.1-3.8-7.3-5.5
				c-6.4-5.1-12.2-10-25.2-11.1c-5.6-0.4-10.7,1.1-15.2,3.8C244.3,204.6,239.2,185.2,235.6,161.9z M182.6,230.4
				c0.4-0.4,0.9-0.6,1.3-0.4c10.2,2.8,24.1,7,37.1,12.2c-7.2,6-15.4,10.7-26.2,11.7c-1.5,0.2-3.2,0.4-4.7,0.6
				c-3.4-8.8-6-16.9-7.9-22.6C182,231.3,182.2,230.7,182.6,230.4z M196.1,267.6c19-1.9,31.8-12.4,42.2-22.4l0.2-0.2
				c1.5-1.5,3-3,4.5-4.5c9-9.2,14.9-14.7,21.3-14.1c8.7,0.8,12,3.4,17.5,7.9c6.6,5.3,14.7,11.9,32.6,17.5
				c29.9,9.2,46.9,16.4,53.8,28.6c-58.4,17.9-115.6,16.8-154,12.6c-26.4-2.8-47.8-7.7-60.6-10.9
				C162.8,276.3,177.3,269.5,196.1,267.6z M310.9,413.9c-0.2,2.6-2.3,4.7-4.9,4.7h-96.7c-2.4,0-4.5-1.9-4.7-4.3
				c-1.7-20.3,0.2-41.8,1.9-55.9c16.8,1.9,35.2,3.2,55,3.2c16.4,0,32.4-0.9,48.2-2.4C311.9,378.1,311.5,401.1,310.9,413.9z
				 M392.8,292.3c4.5,2.3,7.7,6.2,9.2,11.3c3,10.2-2.3,20.9-11.7,24.1c-39.9,13.2-83.2,20-128.7,20c-76.8,0-134-19.2-136.3-20
				c-9.4-3.2-14.7-14.1-11.5-24.1c1.5-4.9,4.9-9,9.2-11.3c2.4-1.3,5.1-1.9,7.7-1.9c1.9,0,3.6,0.4,5.5,0.9
				c0.4,0.2,31.2,10.4,76.6,15.4c41.4,4.5,103.9,5.5,167-15.4C384.1,289.7,388.7,290,392.8,292.3z M400.5,256.9
				c0.2,0,0.2,0.2,0.2,0.4s-0.2,0.4-0.2,0.4c-6,2.8-14.7,6.8-24.1,10.4c-11.3-13.9-32-21.3-58.2-29.4c-1.1-0.4-2.3-0.8-3.4-1.1
				c5.8-4.9,15.1-7.2,26.4-6.6C353.7,231.7,375.3,241.1,400.5,256.9z M427.8,198.2c-22.4,12.4-41.2,19.6-51.6,19.6
				c-16.9,0.2-27.5-7.2-27.7-19c0-5.3,2.1-9.8,6-13.2c4.7-4,12.2-6.2,21.3-6.2h0.2C386.4,179.4,405.2,186.1,427.8,198.2z
				 M416.9,167.3h-0.2c-7.3-0.2-13.4-1.9-17.1-5.1c-3-2.6-4.5-6-4.5-10.2c0-4.1,1.7-7.5,4.9-10c3.8-3,9.4-4.5,16.6-4.5
				c0.2,0,0.4,0,0.8,0c8.3,0.2,23,5.8,40.7,15.4C439.9,162,425.2,167.3,416.9,167.3z M459.3,122.5c-6.8,3-12.8,4-17.7,2.6
				c-4-1.1-6.8-3.6-8.5-7.3c-1.7-3.8-1.7-7.5,0.2-11.1c2.3-4.5,7-8.5,13.6-11.5c7.5-3.4,23.3-4.5,43.5-3.4
				C478.1,108.2,466.8,119.1,459.3,122.5z"/>
		</g>
	</g>
	<g>
		<g>
			<path class="st0" d="M414.1,462.1c10.2-13.2,15.1-29,14.7-47.1c0-3.8-3.2-6.8-7.2-6.8c-3.8,0-6.8,3.2-6.8,7.2
				c0.4,16.9-4.9,31.2-15.4,42.7c-1.3,1.5-2.1,3.4-1.9,5.3s1.1,3.8,2.6,4.9c6.6,5.3,9.4,10.7,9.8,13.9c0.2,1.9-0.4,2.8-0.8,3.2
				c-3,3.6-15.1,4-27.5-4c-1.5-0.9-2.8-1.9-4.1-3c-2.1-1.7-4.7-2.1-7.2-0.9c-25.2,10.9-61.2,16.6-106.9,16.6
				c-49.3,0-87.9-6.4-115.2-19c-2.6-1.1-5.6-0.8-7.7,1.3c-1.9,1.9-4.1,3.6-6.6,5.3c-12.4,7.9-24.5,7.5-27.5,4
				c-0.2-0.4-1.1-1.3-0.8-3.6c0.6-3.8,4.3-10.2,12.8-15.8c1.7-1.1,2.8-3,3-5.1c0.2-2.1-0.4-4.1-1.9-5.6
				c-10.7-11.1-16.9-24.8-18.6-40.8c-0.4-3.8-3.8-6.6-7.5-6.2c-3.8,0.4-6.6,3.8-6.2,7.5c1.7,16.4,7.5,30.9,17.3,43.3
				c-7,6.2-11.5,13.6-12.6,20.5c-0.9,5.5,0.4,10.5,3.6,14.5c8.5,10.5,28.2,10.2,45.7-0.9c1.9-1.1,3.6-2.4,5.3-3.8
				c28.6,12.2,67.9,18.4,116.9,18.4c45.4,0,81.9-5.5,108.6-16c0.8,0.6,1.3,0.9,2.1,1.3c17.5,11.1,37.1,11.5,45.7,0.9
				c3-3.8,4.3-8.5,3.8-13.6C423.1,474.3,419.5,467.7,414.1,462.1z"/>
		</g>
	</g>
	<g>
		<g>
			<path class="st0" d="M304.3,256.9c-3.8,0-7,3-7,7v0.8c0,3.8,3,7,7,7s7-3,7-7v-0.8C311.3,260.1,308.3,256.9,304.3,256.9z"/>
		</g>
	</g>
	<g>
		<g>
			<path class="st0" d="M281.4,258.8c-3.8,0-7,3-7,7v0.8c0,3.8,3,7,7,7s7-3,7-7v-0.8C288.3,261.8,285.3,258.8,281.4,258.8z"/>
		</g>
	</g>
	<g>
		<g>
			<path class="st0" d="M264.6,239.2c-3.8,0-7,3-7,7v0.8c0,3.8,3,7,7,7c3.8,0,7-3,7-7v-0.8C271.6,242.2,268.6,239.2,264.6,239.2z"/>
		</g>
	</g>
	<g>
		<g>
			<path class="st0" d="M245.6,260.5c-3.8,0-7,3-7,7v0.8c0,3.8,3,7,7,7c4,0,7-3,7-7v-0.8C252.4,263.5,249.4,260.5,245.6,260.5z"/>
		</g>
	</g>
</g>
<g>
	<g>
		<g>
			<path class="st0" d="M114,24.2c-6.2-7.3-11.8-13.7-16.1-19.1c-0.3-0.4-0.6-0.6-0.9-0.9c-2.3-1.9-5.5-1.5-7.4,0.9
				c-4.4,5.4-9.9,11.8-16.1,19.1C46.3,55.8,8.3,99.7,8.3,136.4c0,23.6,9.6,44.9,25,60.4c15.6,15.3,36.8,25,60.4,25s44.9-9.6,60.4-25
				s25-36.8,25-60.4C179.2,99.7,141.3,55.8,114,24.2z M146.7,189.1c-13.7,13.7-32.3,22.1-53,22.1s-39.3-8.5-53-22
				c-13.3-13.3-21.9-32.2-21.9-52.9c0-32.7,36.4-74.9,62.7-105.3c4.4-5.2,8.5-9.9,12.2-14.5c3.8,4.5,7.9,9.3,12.2,14.3
				c26.3,30.4,62.7,72.4,62.7,105.3C168.7,156.8,160.1,175.4,146.7,189.1z"/>
		</g>
	</g>
	<g>
		<g>
			<path class="st0" d="M94.1,184.2c-12.8,0-24.4-5.2-32.7-13.4C53.2,162.4,48,150.9,48,138c0-2.9-2.3-5.2-5.2-5.2
				c-2.9,0-5.2,2.3-5.2,5.2c0,15.7,6.4,29.8,16.6,40.1c9.9,9.9,24.3,16.3,40,16.3c2.9,0,5.2-2.3,5.2-5.2
				C99.3,186.4,97,184.2,94.1,184.2z"/>
		</g>
	</g>
</g>
</svg>
