<?xml version="1.0" encoding="utf-8"?>
<!-- Generator: Adobe Illustrator 25.2.0, SVG Export Plug-In . SVG Version: 6.00 Build 0)  -->
<svg version="1.1" id="Capa_1" xmlns="http://www.w3.org/2000/svg" xmlns:xlink="http://www.w3.org/1999/xlink" x="0px" y="0px"
	 viewBox="0 0 422.7 422.7" style="enable-background:new 0 0 422.7 422.7;" xml:space="preserve">
<style type="text/css">
	.st0{fill:#333333;}
</style>
<g>
	<g>
		<path class="st0" d="M250.5,40.7c-12-14-22.8-26.4-31.2-36.8c-0.4-0.8-1.2-1.2-1.6-1.6c-4.4-3.6-10.8-2.8-14.4,1.6
			c-8.4,10.4-19.2,22.8-31.2,36.8c-52.8,61.2-126,146-126,216.8c0,45.6,18.4,86.8,48.4,116.8c30,29.6,71.2,48.4,116.8,48.4
			s86.8-18.4,116.8-48.4s48.4-71.2,48.4-116.8C376.5,186.7,303.3,101.9,250.5,40.7z M313.7,359.5c-26.4,26.4-62.4,42.8-102.4,42.8
			s-76-16.4-102.4-42.4c-26-26-42.4-62.4-42.4-102.4c0-63.2,70.4-144.8,121.2-203.6c8.4-10,16.4-19.2,23.6-28
			c7.2,8.8,15.2,18,23.6,27.6c50.8,58.8,121.2,140,121.2,203.6C356.1,297.1,339.7,333.1,313.7,359.5z"/>
	</g>
</g>
<g>
	<g>
		<path class="st0" d="M212.1,349.9c-24.8,0-47.2-10-63.2-26s-26-38.4-26-63.2c0-5.6-4.4-10-10-10s-10,4.4-10,10
			c0,30.4,12.4,57.6,32,77.6c19.2,19.2,46.8,31.6,77.2,31.6c5.6,0,10-4.4,10-10S217.7,349.9,212.1,349.9z"/>
	</g>
</g>
</svg>
