<?xml version="1.0" encoding="utf-8"?>
<!-- Generator: Adobe Illustrator 22.0.1, SVG Export Plug-In . SVG Version: 6.00 Build 0)  -->
<svg version="1.1" id="Layer_1" xmlns="http://www.w3.org/2000/svg" xmlns:xlink="http://www.w3.org/1999/xlink" x="0px" y="0px"
	 viewBox="0 0 512 512" style="enable-background:new 0 0 512 512;" xml:space="preserve">
<style type="text/css">
	.st0{fill:#333333;}
</style>
<path class="st0" d="M313,72.2c-5.9,0-10.8,4.8-10.8,10.8v57.6c-9.3,1.4-18.3,4.7-26.6,9.6c0.8-23.8-7.2-45.2-24.7-67.6V10.8
	C251,4.8,246.2,0,240.2,0c-5.9,0-10.8,4.8-10.8,10.8v71.8C212,105,204,126.4,204.9,150.3c-8.3-5-17.3-8.3-26.7-9.7V83
	c0-5.9-4.8-10.8-10.8-10.8c-5.9,0-10.8,4.8-10.8,10.8v67.5c0,17,3.5,33.1,10.4,47.5c-5.3,0.1-9.8,4.3-10.3,9.6
	c-0.3,17.3,3.4,34,10.3,48.7c-5.8,0.2-10.4,4.9-10.4,10.7c0,15.5,3.1,31.5,8.6,45.7c-4.9,0.9-8.7,5.4-8.6,10.5
	c-0.7,45.1,28,92.6,72.8,99.3v78.7c0,5.9,4.8,10.8,10.8,10.8c5.9,0,10.8-4.8,10.8-10.8v-78.7c45.4-7.2,73.2-54,72.8-99.3
	c0-5.1-3.6-9.4-8.4-10.5c5.4-14,8.4-30.1,8.4-45.7c0-5.8-4.5-10.4-10.2-10.7c6.7-14.4,10.2-30.5,10.2-47.6c0-5.8-4.5-10.4-10.2-10.7
	c6.7-14.4,10.2-30.5,10.2-47.6V83C323.8,77.1,319,72.2,313,72.2L313,72.2z M231.5,182.1c-9.1-29.8-6.3-52.7,10.2-77.7
	c16.4,24.8,19.3,47.5,10.7,77.1c-4.1,5.6-7.7,11.7-10.7,18.1C238.8,193.4,235.4,187.5,231.5,182.1z M179,162.6
	c33.6,8.4,54.3,42.8,57.7,78.1c-9.7-13-24.3-24.8-38.4-30.6C187.8,196.5,181.2,180.3,179,162.6L179,162.6z M179,220.9
	c36,8.8,58.8,47.1,61.6,84.5c-10.3-14.1-25.9-27.1-40.7-33.5C188.5,257.3,181.4,239.9,179,220.9z M179,279.3
	c27.2,6.7,45.7,36.5,49.5,64.9c-9.6-12.5-23.8-23.1-37.6-27.7C184.9,306,180.6,292.7,179,279.3L179,279.3z M228.7,400.5
	c-27.8-6.5-46.6-36.2-49.8-65.1C206.7,341.9,225.5,371.6,228.7,400.5z M251.7,400.5c3.3-29.1,21.6-58.2,49.8-65.1
	C297.5,368.2,277.4,394.4,251.7,400.5z M290.7,330c-15.9,5.4-32.1,16.8-43.9,32.3c4.3-32.9,25.8-67.2,57.3-75.2
	C302.3,302.8,297.5,318.2,290.7,330L290.7,330z M284.9,267.4c-14.1,6.1-28.4,17.6-38.9,31.8c2.5-35.2,24.3-71.3,58-79.6
	C301.9,237.5,295.3,253.8,284.9,267.4z M286.9,202.7c-13.8,5.7-27.8,16.6-38.1,30.2c3.3-34.7,23.5-68.1,56.5-76.5
	C303.2,173.7,296.9,189.5,286.9,202.7z"/>
</svg>
