<?xml version="1.0" encoding="utf-8"?>
<!-- Generator: Adobe Illustrator 22.0.1, SVG Export Plug-In . SVG Version: 6.00 Build 0)  -->
<svg version="1.1" id="Layer_1" xmlns="http://www.w3.org/2000/svg" xmlns:xlink="http://www.w3.org/1999/xlink" x="0px" y="0px"
	 viewBox="0 0 512 512" style="enable-background:new 0 0 512 512;" xml:space="preserve">
<style type="text/css">
	.st0{fill:#333333;}
</style>
<g>
	<g>
		<path class="st0" d="M511.5,288c-1.1-4.1-3.7-7.6-7.3-9.7L359.3,193V17.4c0-8.8-7.1-15.9-15.9-15.9H108.3
			c-8.8,0-15.9,7.1-15.9,15.9v219.7H15.9C7.1,237.1,0,244.2,0,253v235.1c0,8.8,7.1,15.9,15.9,15.9H251c8.8,0,15.9-7.1,15.9-15.9
			v-39.8l101.8,59.9c2.5,1.5,5.3,2.2,8.1,2.2c5.4,0,10.7-2.8,13.7-7.8l119.3-202.6C511.9,296.4,512.5,292.1,511.5,288z M235.1,472.3
			H31.8V268.9h203.4L235.1,472.3L235.1,472.3z M237.4,236.6H124.2V33.3h203.4v141l-26-15.3c-3.6-2.1-8-2.7-12-1.7
			c-4.1,1.1-7.6,3.7-9.7,7.3L237.4,236.6z M371.2,472.9l-104.2-61.4V253h0c0-1.1-0.1-2.3-0.4-3.3l32.5-55.2l175.2,103.2L371.2,472.9
			z"/>
	</g>
</g>
</svg>
