<?xml version="1.0" encoding="utf-8"?>
<!-- Generator: Adobe Illustrator 22.0.1, SVG Export Plug-In . SVG Version: 6.00 Build 0)  -->
<svg version="1.1" id="Capa_1" xmlns="http://www.w3.org/2000/svg" xmlns:xlink="http://www.w3.org/1999/xlink" x="0px" y="0px"
	 viewBox="0 0 512 512" style="enable-background:new 0 0 512 512;" xml:space="preserve">
<style type="text/css">
	.st0{fill:#333333;}
</style>
<g>
	<g>
		<path class="st0" d="M207.1,10.6l8.3,23.2c0.4,1,1.1,1.8,1.9,2.2l20.6,9.3c2.9,1.3,2.9,6,0,7.3l-20.6,9.3
			c-0.9,0.4-1.6,1.2-1.9,2.2l-8.3,23.2c-1.2,3.3-5.3,3.3-6.5,0L192.4,64c-0.4-1-1.1-1.8-1.9-2.2l-20.6-9.3c-2.9-1.3-2.9-6,0-7.3
			l20.6-9.3c0.9-0.4,1.6-1.2,1.9-2.2l8.3-23.2C201.8,7.4,206,7.4,207.1,10.6z"/>
		<path class="st0" d="M486.7,219.2l6.1,17.2c0.3,0.7,0.8,1.3,1.4,1.6l15.3,6.9c2.2,1,2.2,4.4,0,5.4l-15.3,6.9
			c-0.7,0.3-1.2,0.9-1.4,1.6l-6.1,17.2c-0.9,2.4-3.9,2.4-4.8,0l-6.1-17.2c-0.3-0.7-0.8-1.3-1.4-1.6l-15.3-6.9c-2.2-1-2.2-4.4,0-5.4
			l15.3-6.9c0.7-0.3,1.2-0.9,1.4-1.6l6.1-17.2C482.7,216.8,485.8,216.8,486.7,219.2L486.7,219.2z"/>
		<circle class="st0" cx="372.9" cy="81.8" r="7.8"/>
		
			<ellipse transform="matrix(7.096292e-02 -0.9975 0.9975 7.096292e-02 410.7009 504.9332)" class="st0" cx="476.4" cy="32" rx="14.4" ry="14.4"/>
	</g>
	<g>
		<path class="st0" d="M345,304.6c-12.3-26.1-33.9-55.2-60.8-82.1c-8.3-8.3-16.8-16.1-25.4-23.3l-6.5-23.3l16.4,5.3
			c0.1,0,0.2,0.1,0.3,0.1c15.4,4.6,31.9,0.4,43.1-10.8l16.9-16.9c11.2-11.2,15.3-27.7,10.8-43.1l-9.3-31.4
			c-4.8-16.2-21.9-25.5-38.1-20.7c-16.2,4.8-25.5,21.9-20.8,38.1l6.6,23.4l-16.5-4.7c-15.4-4.5-31.9-0.4-43.1,10.8l-16.9,16.9
			c-4.2,4.2-7.4,9.2-9.5,14.5c-29.6-11.6-45.4-6.1-53.8,1.4c-5.4,3.3-9.9,8.1-12.6,14c0,0.1-0.1,0.2-0.1,0.2L3.4,454.9
			c-6.5,14.2-3.5,31,7.5,42.1c7.1,7.1,16.8,10.9,26.5,10.9c5.3,0,10.6-1.1,15.5-3.4l282.5-121.6c0.1,0,0.2-0.1,0.3-0.1
			c9.5-4.4,16.2-13.2,18-23.4c0.1-0.5,0.1-0.9,0.2-1.4C357.7,347.1,357.2,330.4,345,304.6L345,304.6z M315.5,292.9
			c2.8,0,5.5,1,7.6,3.1c4.2,4.2,4.2,11,0,15.2c-4.2,4.2-11,4.2-15.2,0c-4.2-4.2-4.2-11,0-15.2C310,294,312.8,292.9,315.5,292.9z
			 M298,77.6c5.6-1.7,11.5,1.6,13.2,7.2l9.3,31.4c2.5,8.3,0.3,17.2-5.7,23.2l-7.7,7.7l-4.8-15.5c0,0,0,0,0,0l-11.4-40.7
			c0,0,0-0.1,0-0.1C289.2,85.2,292.4,79.3,298,77.6z M256,134.4c0,0,0.1,0,0.1,0l28.6,8.1l5.8,18.8c-4.9,2-10.4,2.4-15.7,0.8
			l-29.1-9.5l-5.4-17.5c2.8-1.1,5.8-1.7,8.9-1.7C251.4,133.4,253.7,133.8,256,134.4z M215.8,157l7.7-7.7l4.9,16c0,0,0,0,0,0.1
			l11.2,40.2c0,0.1,0,0.1,0,0.2c0.8,2.7,0.5,5.6-0.9,8.1c-1.4,2.5-3.6,4.3-6.3,5.1c-3.7,1.1-7.8,0.1-10.5-2.7
			c-1.3-1.3-2.1-2.8-2.7-4.5l-9.3-31.4C207.6,171.9,209.8,163,215.8,157z M151.5,174c1.9-1.9,5.4-3.2,10.5-3.2
			c6.4,0,15.4,2,27.2,7.1c0.3,2.7,0.8,5.4,1.6,8l9.3,31.4c1.4,4.9,4.1,9.4,7.7,13c5.9,5.9,13.7,9,21.7,9c2.9,0,5.8-0.4,8.7-1.3
			c7.7-2.3,14.1-7.4,18.1-14.4c4.6,4.1,9.1,8.5,13.6,13c14.8,14.8,27.9,30.3,38.4,45.4c-3.3,1.1-6.4,2.9-9,5.5
			c-8.9,8.9-8.9,23.4,0,32.2c4.4,4.4,10.3,6.7,16.1,6.7c5.2,0,10.5-1.8,14.7-5.4c7.6,19,6.5,30,2.4,34.1c-4.6,4.6-18,5.5-41.9-5.9
			c-24-11.4-51.2-31.6-76.5-56.9c-25.3-25.3-45.5-52.5-56.9-76.5C146.1,192,146.9,178.6,151.5,174L151.5,174z M44.9,486.1
			c-0.1,0-0.2,0.1-0.3,0.1c-6.6,3-14.4,1.6-19.5-3.5v0c-5.1-5.1-6.5-13-3.5-19.5c0-0.1,0.1-0.2,0.1-0.2l110.7-255.3
			c1.7,5.1,3.9,10.7,6.8,16.8c12.3,26.1,33.9,55.2,60.8,82.1c26.9,26.9,56.1,48.5,82.1,60.8c7.5,3.5,14.2,6.1,20.2,7.8L44.9,486.1z"
			/>
		<path class="st0" d="M490,93.1l-31.4-9.3c-15.4-4.6-31.9-0.4-43.1,10.8l-16.9,16.9c-11.2,11.2-15.3,27.7-10.8,43.1
			c0,0.1,0.1,0.2,0.1,0.3l5.3,16.4l-24.2-6.7c-16.2-4.7-33.3,4.6-38.1,20.8c-3.2,10.8-0.2,22.5,7.7,30.4c3.6,3.6,8.1,6.3,13,7.7
			l31.4,9.3c4.1,1.2,8.4,1.8,12.5,1.8c11.4,0,22.4-4.4,30.6-12.6l16.9-16.9c11.2-11.2,15.3-27.7,10.8-43.1l-4.7-16.5l23.4,6.6
			c7.8,2.3,16.1,1.4,23.3-2.5c7.2-3.9,12.5-10.4,14.8-18.3C515.5,115,506.2,97.9,490,93.1L490,93.1z M426.6,138.9l8.1,28.6
			c0,0,0,0.1,0,0.1c1.6,5.3,1.2,10.8-0.7,15.7l-17.5-5.4l-9.5-29.1c-1.5-5.3-1.2-10.9,0.8-15.7L426.6,138.9z M388.8,213.5l-31.4-9.3
			c-1.7-0.5-3.2-1.4-4.5-2.7c-2.8-2.8-3.8-6.8-2.7-10.5c1.4-4.6,5.6-7.6,10.2-7.6c1,0,2,0.1,3,0.4c0.1,0,0.1,0,0.2,0l40.2,11.2
			c0,0,0,0,0.1,0l16,4.9l-7.7,7.7C406,213.7,397.1,215.9,388.8,213.5L388.8,213.5z M491.5,125.5c-0.8,2.7-2.6,5-5.1,6.3
			c-2.5,1.4-5.4,1.7-8.1,0.9c0,0-0.1,0-0.1,0l-40.7-11.4c0,0,0,0,0,0l-15.5-4.8l7.7-7.7c6-6,14.9-8.2,23.3-5.7l31.4,9.3
			C489.9,114,493.1,119.9,491.5,125.5L491.5,125.5z"/>
		<path class="st0" d="M382,49.7c5.8,0,11.7-2.2,16.1-6.7c8.9-8.9,8.9-23.4,0-32.2c-8.9-8.9-23.4-8.9-32.2,0
			c-8.9,8.9-8.9,23.4,0,32.2C370.3,47.5,376.2,49.7,382,49.7z M374.4,19.3c2.1-2.1,4.8-3.1,7.6-3.1c2.8,0,5.5,1,7.6,3.1
			c4.2,4.2,4.2,11,0,15.2c-4.2,4.2-11,4.2-15.2,0C370.2,30.3,370.2,23.5,374.4,19.3L374.4,19.3z"/>
		<path class="st0" d="M403,284.5c-8.9,8.9-8.9,23.4,0,32.2c4.4,4.4,10.3,6.7,16.1,6.7c5.8,0,11.7-2.2,16.1-6.7
			c8.9-8.9,8.9-23.4,0-32.2C426.4,275.6,411.9,275.6,403,284.5z M426.8,308.2c-4.2,4.2-11,4.2-15.2,0c-4.2-4.2-4.2-11,0-15.2
			c2.1-2.1,4.8-3.1,7.6-3.1s5.5,1,7.6,3.1C430.9,297.2,430.9,304,426.8,308.2L426.8,308.2z"/>
		<path class="st0" d="M101.3,364.7c-1.3,0-2.7-0.3-4-0.8c-5.1-2.2-7.4-8.1-5.3-13.2l12.7-29.5c2.2-5.1,8.1-7.5,13.2-5.3
			c5.1,2.2,7.4,8.1,5.3,13.2l-12.7,29.5C108.9,362.4,105.2,364.7,101.3,364.7L101.3,364.7z"/>
		<path class="st0" d="M128.3,302.1c-1.3,0-2.7-0.3-4-0.8c-5.1-2.2-7.4-8.1-5.3-13.2l3.9-9c2.2-5.1,8.1-7.5,13.2-5.3
			c5.1,2.2,7.4,8.1,5.3,13.2l-3.9,9C135.9,299.8,132.2,302.1,128.3,302.1L128.3,302.1z"/>
	</g>
</g>
</svg>
