<?xml version="1.0" encoding="utf-8"?>
<!-- Generator: Adobe Illustrator 22.0.1, SVG Export Plug-In . SVG Version: 6.00 Build 0)  -->
<svg version="1.1" id="Capa_1" xmlns="http://www.w3.org/2000/svg" xmlns:xlink="http://www.w3.org/1999/xlink" x="0px" y="0px"
	 viewBox="0 0 512 512" style="enable-background:new 0 0 512 512;" xml:space="preserve">
<style type="text/css">
	.st0{fill:#FFFFFF;}
</style>
<g>
	<g>
		<path class="st0" d="M467,0H45C20.2,0,0,20.2,0,45v302c0,24.8,20.2,45,45,45h135v30h-15c-24.8,0-45,20.2-45,45v30
			c0,8.3,6.7,15,15,15h242c8.3,0,15-6.7,15-15v-30c0-24.8-20.2-45-45-45h-15v-30h135c24.8,0,45-20.2,45-45V45
			C512,20.2,491.8,0,467,0z M347,452c8.3,0,15,6.7,15,15v15H150v-15c0-8.3,6.7-15,15-15H347z M210,422v-30h92v30H210z M482,347
			c0,8.3-6.7,15-15,15H45c-8.3,0-15-6.7-15-15v-15h452V347z M482,302H30V45c0-8.3,6.7-15,15-15h422c8.3,0,15,6.7,15,15V302z"/>
	</g>
</g>
<g>
	<g>
		<path class="st0" d="M399.9,77.2c-4.4-2.7-9.9-3-14.6-0.7l-69.2,34.6c-1.8-8.7-6.3-16.8-13-23.2C294.3,79.6,283,75,271,75H150
			c-24.8,0-45,20.2-45,45v92c0,24.8,20.2,45,45,45h121c12,0,23.3-4.6,32.1-12.9c6.8-6.5,11.2-14.5,13-23.2l69.2,34.6
			c4.7,2.3,10.2,2.1,14.6-0.7c4.4-2.7,7.1-7.6,7.1-12.8V90C407,84.8,404.3,80,399.9,77.2z M287,212c0,8-7.5,15-16,15H150
			c-8.3,0-15-6.7-15-15v-92c0-8.3,6.7-15,15-15h121c8.5,0,16,7,16,15V212z M377,217.7l-60-30v-43.5l60-30V217.7z"/>
	</g>
</g>
</svg>
