<?xml version="1.0" encoding="utf-8"?>
<!-- Generator: Adobe Illustrator 22.0.1, SVG Export Plug-In . SVG Version: 6.00 Build 0)  -->
<svg version="1.1" id="Layer_1" xmlns="http://www.w3.org/2000/svg" xmlns:xlink="http://www.w3.org/1999/xlink" x="0px" y="0px"
	 viewBox="0 0 297 297" style="enable-background:new 0 0 297 297;" xml:space="preserve">
<style type="text/css">
	.st0{fill:#FFFFFF;}
</style>
<g>
	<path class="st0" d="M148.5,73.8c12.2,0,22.2-10,22.2-22.2s-10-22.2-22.2-22.2s-22.2,10-22.2,22.2S136.3,73.8,148.5,73.8z
		 M148.5,44.2c4.1,0,7.4,3.3,7.4,7.4s-3.3,7.4-7.4,7.4s-7.4-3.3-7.4-7.4S144.4,44.2,148.5,44.2z"/>
	<path class="st0" d="M229.9,177.6c-12.2,0-22.2,10-22.2,22.2s10,22.2,22.2,22.2s22.2-10,22.2-22.2S242.1,177.6,229.9,177.6z
		 M229.9,207.1c-4.1,0-7.4-3.3-7.4-7.4s3.3-7.4,7.4-7.4s7.4,3.3,7.4,7.4S234,207.1,229.9,207.1z"/>
	<path class="st0" d="M229.9,155.5c-17.9,0-34.1,7-46.2,18.5l-26.8-13.4V141c33.1-4.1,58.7-32.4,58.7-66.6c0-37-30.1-67.1-67.1-67.1
		S81.4,37.4,81.4,74.4c0,34.2,25.7,62.4,58.7,66.6v19.5l-26.8,13.4c-12-11.4-28.3-18.5-46.2-18.5c-37,0-67.1,30.1-67.1,67.1
		s30.1,67.1,67.1,67.1s67.1-30.1,67.1-67.1c0-12.9-3.7-25-10.1-35.3l24.4-12.2l24.4,12.2c-6.4,10.3-10.1,22.4-10.1,35.3
		c0,37,30.1,67.1,67.1,67.1s67.1-30.1,67.1-67.1S266.9,155.5,229.9,155.5L229.9,155.5z M49.5,269.7v-23.5c0-2.1,1.3-4,3.3-4.7
		l1.6-0.5l9.6,4.5c2,1,4.3,1,6.4,0l9.6-4.5l1.6,0.5c2,0.7,3.3,2.6,3.3,4.7v23.5c-5.5,2.1-11.4,3.2-17.6,3.2S55,271.8,49.5,269.7z
		 M99.5,261v-14.8c0-8.5-5.4-16-13.5-18.7c-0.1,0-4.6-1.4-4.6-1.4c-1.8-0.5-3.7-0.4-5.3,0.4l-9,4.3l-9-4.3c-1.7-0.8-3.6-0.9-5.3-0.4
		c0,0-4.5,1.4-4.6,1.4c-8.1,2.7-13.5,10.2-13.5,18.7V261c-10.9-9.2-17.9-23-17.9-38.4c0-27.7,22.6-50.3,50.3-50.3
		s50.3,22.6,50.3,50.3C117.4,238,110.5,251.8,99.5,261z M130.9,121.6V98.1c0-2.1,1.3-4,3.3-4.7l1.6-0.5l9.6,4.5c2,1,4.3,1,6.4,0
		l9.6-4.5l1.6,0.5c2,0.7,3.3,2.6,3.3,4.7v23.5c-5.5,2.1-11.4,3.2-17.6,3.2S136.4,123.6,130.9,121.6L130.9,121.6z M98.2,74.4
		c0-27.7,22.6-50.3,50.3-50.3s50.3,22.6,50.3,50.3c0,15.4-7,29.2-17.9,38.4V98.1c0-8.5-5.4-16-13.5-18.7c-0.1,0-4.6-1.4-4.6-1.4
		c-1.8-0.5-3.7-0.4-5.3,0.4l-9,4.3l-9-4.3c-1.7-0.8-3.6-0.9-5.3-0.4c0,0-4.5,1.4-4.6,1.4c-8.1,2.7-13.5,10.2-13.5,18.7v14.8
		C105.1,103.6,98.2,89.8,98.2,74.4L98.2,74.4z M212.3,269.7v-23.5c0-2.1,1.3-4,3.3-4.7l1.6-0.5l9.6,4.5c2,1,4.3,1,6.4,0l9.6-4.5
		l1.6,0.5c2,0.7,3.3,2.6,3.3,4.7v23.5c-5.5,2.1-11.4,3.2-17.6,3.2S217.8,271.8,212.3,269.7L212.3,269.7z M262.3,261v-14.8
		c0-8.5-5.4-16-13.5-18.7c-0.1,0-4.6-1.4-4.6-1.4c-1.8-0.5-3.7-0.4-5.3,0.4l-9,4.3l-9-4.3c-1.7-0.8-3.6-0.9-5.3-0.4
		c0,0-4.5,1.4-4.6,1.4c-8.1,2.7-13.5,10.2-13.5,18.7V261c-10.9-9.2-17.9-23-17.9-38.4c0-27.7,22.6-50.3,50.3-50.3
		s50.3,22.6,50.3,50.3C280.2,238,273.3,251.8,262.3,261L262.3,261z"/>
	<path class="st0" d="M67.1,177.6c-12.2,0-22.2,10-22.2,22.2s10,22.2,22.2,22.2s22.2-10,22.2-22.2S79.3,177.6,67.1,177.6z
		 M67.1,207.1c-4.1,0-7.4-3.3-7.4-7.4s3.3-7.4,7.4-7.4s7.4,3.3,7.4,7.4S71.2,207.1,67.1,207.1z"/>
</g>
</svg>
