<?xml version="1.0" encoding="utf-8"?>
<!-- Generator: Adobe Illustrator 22.0.1, SVG Export Plug-In . SVG Version: 6.00 Build 0)  -->
<svg version="1.1" id="_x33_0" xmlns="http://www.w3.org/2000/svg" xmlns:xlink="http://www.w3.org/1999/xlink" x="0px" y="0px"
	 viewBox="0 0 512 512" style="enable-background:new 0 0 512 512;" xml:space="preserve">
<style type="text/css">
	.st0{fill:#FFFFFF;}
</style>
<g>
	<path class="st0" d="M256,104c-13.2,0-24,10.8-24,24s10.8,24,24,24s24-10.8,24-24S269.2,104,256,104z M256,136c-4.4,0-8-3.6-8-8
		s3.6-8,8-8c4.4,0,8,3.6,8,8S260.4,136,256,136z"/>
	<path class="st0" d="M224,312h16v16h-16V312z"/>
	<path class="st0" d="M176,312h16v16h-16V312z"/>
	<path class="st0" d="M272,312h16v16h-16V312z"/>
	<path class="st0" d="M320,312h16v16h-16V312z"/>
	<path class="st0" d="M464,40H337.3C315.9,20.2,287.4,8,256,8s-59.9,12.2-81.3,32H48C25.9,40,8,57.9,8,80v304c0,22.1,17.9,40,40,40
		h144v11.8c0,3.6-2.4,6.8-5.9,7.7L133,458c-17.1,4.7-29,20.3-29,38v8h304v-8c0-17.7-11.9-33.4-29-38l-53.1-14.5
		c-3.5-0.9-5.9-4.1-5.9-7.7V424h144c22.1,0,40-17.9,40-40V80C504,57.9,486.1,40,464,40L464,40z M360,128c0,2.7-0.2,5.3-0.4,8h-48.2
		c0.4-2.6,0.6-5.3,0.6-8c0-30.9-25.1-56-56-56c-2.7,0-5.4,0.3-8,0.6V24.4c2.6-0.2,5.3-0.4,8-0.4C313.3,24,360,70.7,360,128z
		 M306.5,152h50.6c-3.8,16.1-11.3,30.9-22.2,43.6l-34.2-34.2C303,158.5,304.9,155.4,306.5,152z M376,248H136v-16h155.3l16-16H376
		V248z M152,128c0-2.7,0.2-5.4,0.4-8h48.2c-0.4,2.6-0.6,5.3-0.6,8c0,30.9,25.1,56,56,56c2.7,0,5.4-0.3,8-0.6V216h-63.2
		C170.2,196.8,152,164.1,152,128z M289.5,172.8l27.2,27.2h-9.4c-4.3,0-8.3,1.7-11.3,4.7L284.7,216H280v-37.5
		C283.4,176.9,286.5,175,289.5,172.8z M256,168c-22.1,0-40-17.9-40-40s17.9-40,40-40s40,17.9,40,40S278.1,168,256,168L256,168z
		 M222.5,83.2l-34.1-34.1c12.4-10.6,27.2-18.3,43.6-22.2v50.6C228.6,79.1,225.5,81,222.5,83.2z M211.2,94.5c-2.2,3-4.1,6.1-5.7,9.5
		h-50.6c3.9-16.4,11.6-31.2,22.2-43.6L211.2,94.5z M174.4,216H136c-8.8,0-16,7.2-16,16v128H72V104h66.4c-1.6,7.8-2.4,15.8-2.4,24
		C136,162.1,150,193.6,174.4,216L174.4,216z M136,264h240v96H136V264z M376,200h-24.2c15.6-20.7,24.2-45.6,24.2-72
		c0-8.2-0.8-16.2-2.4-24H440v256h-48V216C392,207.2,384.8,200,376,200z M321.7,458.9l53.1,14.5c7.5,2,13.3,7.6,15.8,14.6H121.4
		c2.6-7,8.4-12.6,15.8-14.6l53.1-14.5c10.4-2.8,17.7-12.4,17.7-23.2V424h96v11.8C304,446.6,311.3,456.1,321.7,458.9L321.7,458.9z
		 M488,384c0,13.2-10.8,24-24,24H48c-13.2,0-24-10.8-24-24V80c0-13.2,10.8-24,24-24h112.2c-7.3,9.6-13.1,20.4-17.2,32H72
		c-8.8,0-16,7.2-16,16v256c0,8.8,7.2,16,16,16h368c8.8,0,16-7.2,16-16V104c0-8.8-7.2-16-16-16h-71c-4.1-11.6-10-22.4-17.2-32H464
		c13.2,0,24,10.8,24,24V384z"/>
</g>
</svg>
