<?xml version="1.0" encoding="utf-8"?>
<!-- Generator: Adobe Illustrator 22.0.1, SVG Export Plug-In . SVG Version: 6.00 Build 0)  -->
<svg version="1.1" id="Capa_1" xmlns="http://www.w3.org/2000/svg" xmlns:xlink="http://www.w3.org/1999/xlink" x="0px" y="0px"
	 viewBox="0 0 512 512" style="enable-background:new 0 0 512 512;" xml:space="preserve">
<style type="text/css">
	.st0{fill:#FFFFFF;}
</style>
<g>
	<g>
		<path class="st0" d="M467,120H232.2l94.4-94.4c5.9-5.9,5.9-15.4,0-21.2c-5.9-5.9-15.4-5.9-21.2,0L196,113.8L86.6,4.4
			c-5.9-5.9-15.4-5.9-21.2,0c-5.9,5.9-5.9,15.4,0,21.2l94.4,94.4H45c-24.9,0-45,21.1-45,46v301c0,24.8,20.2,45,45,45h422
			c24.8,0,45-20.2,45-45V166C512,141.1,491.9,120,467,120z M482,467c0,8.3-6.7,15-15,15H45c-8.3,0-15-6.7-15-15V166
			c0-8.5,7-16,15-16h422c8,0,15,7.5,15,16V467z"/>
	</g>
</g>
<g>
	<g>
		<path class="st0" d="M347,181H105c-24.8,0-45,20.2-45,45v181c0,24.8,20.2,45,45,45h242c24.8,0,45-20.2,45-45V226
			C392,201.2,371.8,181,347,181z M362,407c0,8.3-6.7,15-15,15H105c-8.3,0-15-6.7-15-15V226c0-8.3,6.7-15,15-15h242
			c8.3,0,15,6.7,15,15V407z"/>
	</g>
</g>
<g>
	<g>
		<circle class="st0" cx="437" cy="226" r="15"/>
	</g>
</g>
<g>
	<g>
		<circle class="st0" cx="437" cy="286" r="15"/>
	</g>
</g>
<g>
	<g>
		<circle class="st0" cx="437" cy="346" r="15"/>
	</g>
</g>
<g>
	<g>
		<path class="st0" d="M292.7,302.6l-120-60c-4.6-2.3-10.2-2.1-14.6,0.7c-4.4,2.7-7.1,7.6-7.1,12.8v120c0,5.2,2.7,10,7.1,12.8
			c4.4,2.7,10,3,14.6,0.7l120-60c5.1-2.5,8.3-7.7,8.3-13.4S297.8,305.1,292.7,302.6z M181,351.7v-71.5l71.5,35.7L181,351.7z"/>
	</g>
</g>
</svg>
