<?xml version="1.0" encoding="utf-8"?>
<!-- Generator: Adobe Illustrator 22.0.1, SVG Export Plug-In . SVG Version: 6.00 Build 0)  -->
<svg version="1.1" id="Layer_1" xmlns="http://www.w3.org/2000/svg" xmlns:xlink="http://www.w3.org/1999/xlink" x="0px" y="0px"
	 viewBox="0 0 297 297" style="enable-background:new 0 0 297 297;" xml:space="preserve">
<style type="text/css">
	.st0{fill:#FFFFFF;}
</style>
<g>
	<path class="st0" d="M99.3,96l35-15.2l5.9,13.6c0.9,2.1,2.6,3.7,4.7,4.5c1,0.4,2.1,0.6,3.1,0.6c1.2,0,2.3-0.2,3.4-0.7L196.7,79
		l-4.6,11.6c-1.7,4.4,0.4,9.3,4.8,11c1,0.4,2.1,0.6,3.1,0.6c3.4,0,6.6-2,7.9-5.4L220,66.2c1.7-4.4-0.4-9.3-4.8-11l-30.7-12.1
		c-4.4-1.7-9.3,0.4-11,4.8c-1.7,4.4,0.4,9.3,4.8,11l11.6,4.6l-37.5,16.4l-5.9-13.6c-0.9-2.1-2.6-3.7-4.7-4.5
		c-2.1-0.8-4.4-0.8-6.5,0.1L92.5,80.5c-4.3,1.9-6.3,6.9-4.4,11.2S95,97.9,99.3,96z"/>
	<path class="st0" d="M148.5,120.6c-19.1,0-34.6,15.5-34.6,34.6s15.5,34.6,34.6,34.6s34.6-15.5,34.6-34.6S167.6,120.6,148.5,120.6z
		 M148.5,172.7c-9.7,0-17.6-7.9-17.6-17.6c0-9.7,7.9-17.6,17.6-17.6s17.6,7.9,17.6,17.6S158.2,172.7,148.5,172.7z"/>
	<path class="st0" d="M54.8,216.4c15.2,0,27.6-12.4,27.6-27.6s-12.4-27.6-27.6-27.6s-27.6,12.4-27.6,27.6
		C27.2,204,39.6,216.4,54.8,216.4z M54.8,178.1c5.9,0,10.6,4.8,10.6,10.6c0,5.9-4.8,10.6-10.6,10.6c-5.9,0-10.6-4.8-10.6-10.6
		C44.2,182.9,49,178.1,54.8,178.1z"/>
	<path class="st0" d="M242.2,216.4c15.2,0,27.6-12.4,27.6-27.6s-12.4-27.6-27.6-27.6s-27.6,12.4-27.6,27.6
		C214.6,204,226.9,216.4,242.2,216.4z M242.2,178.1c5.9,0,10.6,4.8,10.6,10.6c0,5.9-4.8,10.6-10.6,10.6c-5.9,0-10.6-4.8-10.6-10.6
		C231.5,182.9,236.3,178.1,242.2,178.1z"/>
	<path class="st0" d="M280.4,289.6c4.7,0,8.5-3.8,8.5-8.5v-24.5c4.5-0.2,8.1-3.9,8.1-8.5V15.9c0-4.7-3.8-8.5-8.5-8.5H8.5
		C3.8,7.4,0,11.2,0,15.9v232.3c0,4.6,3.6,8.3,8.1,8.5v24.5c0,4.7,3.8,8.5,8.5,8.5L280.4,289.6L280.4,289.6z M280,24.4v199.3
		c-2.8-2.5-6.1-4.6-9.8-5.8c-0.1,0-0.1,0-0.2-0.1l-6.7-2.1c-1.9-0.6-4-0.5-5.9,0.3l-15.2,6.6L227,216c-1.9-0.8-4-0.9-5.9-0.3
		l-6.7,2.1c-0.1,0-0.1,0-0.2,0.1c-2.3,0.8-4.4,1.8-6.3,3.1c-3-10.7-11.1-19.5-22.1-23.2c-0.1,0-0.1,0-0.2-0.1l-9.2-2.8
		c-1.9-0.6-4-0.5-5.9,0.3l-21.9,9.6l-21.9-9.6c-1.9-0.8-4-0.9-5.9-0.3l-9.2,2.8c-0.1,0-0.1,0-0.2,0.1c-11,3.7-19.1,12.4-22.1,23.2
		c-1.9-1.3-4.1-2.3-6.3-3.1c-0.1,0-0.1,0-0.2-0.1l-6.7-2.1c-1.9-0.6-4-0.5-5.9,0.3l-15.2,6.6L39.7,216c-1.9-0.8-4-0.9-5.9-0.3
		l-6.7,2.1c-0.1,0-0.1,0-0.2,0.1c-3.7,1.2-7.1,3.3-9.8,5.8V24.4H280L280,24.4z M84.6,272.6H25.1v-28.9c0-4.4,2.8-8.4,7-9.8l3.6-1.1
		l15.7,6.9c2.2,0.9,4.6,0.9,6.8,0l15.7-6.9l3.6,1.1c4.2,1.4,7,5.4,7,9.8L84.6,272.6L84.6,272.6z M192.1,272.6h-87.3v-42.5
		c0-7.4,4.7-14,11.7-16.3l6.1-1.9l22.5,9.8c2.2,0.9,4.6,0.9,6.8,0l22.5-9.8l6.1,1.9c7,2.4,11.7,8.9,11.7,16.3L192.1,272.6
		L192.1,272.6z M271.9,272.6h-59.5v-28.9c0-4.4,2.8-8.4,7-9.8l3.6-1.1l15.7,6.9c2.2,0.9,4.6,0.9,6.8,0l15.7-6.9l3.6,1.1
		c4.2,1.4,7,5.4,7,9.8L271.9,272.6L271.9,272.6z"/>
</g>
</svg>
