<?xml version="1.0" encoding="utf-8"?>
<!-- Generator: Adobe Illustrator 22.0.1, SVG Export Plug-In . SVG Version: 6.00 Build 0)  -->
<svg version="1.1" id="Capa_1" xmlns="http://www.w3.org/2000/svg" xmlns:xlink="http://www.w3.org/1999/xlink" x="0px" y="0px"
	 viewBox="0 0 47 47" style="enable-background:new 0 0 47 47;" xml:space="preserve">
<style type="text/css">
	.st0{fill:#FFFFFF;}
</style>
<g>
	<g>
		<path class="st0" d="M1.9,30.9c-1,0-1.9,0.8-1.9,1.9v12.4c0,1,0.8,1.9,1.9,1.9s1.9-0.8,1.9-1.9V32.8C3.7,31.8,2.9,30.9,1.9,30.9z"
			/>
		<path class="st0" d="M7.3,18.6c-1,0-1.9,0.8-1.9,1.9v24.7c0,1,0.8,1.9,1.9,1.9s1.9-0.8,1.9-1.9V20.4C9.1,19.4,8.3,18.6,7.3,18.6z"
			/>
		<path class="st0" d="M12.7,24.7c-1,0-1.9,0.8-1.9,1.9v18.6c0,1,0.8,1.9,1.9,1.9s1.9-0.8,1.9-1.9V26.6
			C14.5,25.6,13.7,24.7,12.7,24.7z"/>
		<path class="st0" d="M18.1,12.4c-1,0-1.9,0.8-1.9,1.9v30.9c0,1,0.8,1.9,1.9,1.9c1,0,1.9-0.8,1.9-1.9V14.2
			C19.9,13.2,19.1,12.4,18.1,12.4z"/>
		<path class="st0" d="M23.5,0c-1,0-1.9,0.8-1.9,1.9v43.3c0,1,0.8,1.9,1.9,1.9c1,0,1.9-0.8,1.9-1.9V1.9C25.4,0.8,24.5,0,23.5,0z"/>
		<path class="st0" d="M39.7,24.7c-1,0-1.9,0.8-1.9,1.9v18.6c0,1,0.8,1.9,1.9,1.9s1.9-0.8,1.9-1.9V26.6
			C41.6,25.6,40.8,24.7,39.7,24.7z"/>
		<path class="st0" d="M45.1,12.4c-1,0-1.9,0.8-1.9,1.9v30.9c0,1,0.8,1.9,1.9,1.9c1,0,1.9-0.8,1.9-1.9V14.2
			C47,13.2,46.2,12.4,45.1,12.4z"/>
		<path class="st0" d="M28.9,18.6c-1,0-1.9,0.8-1.9,1.9v24.7c0,1,0.8,1.9,1.9,1.9s1.9-0.8,1.9-1.9V20.4
			C30.8,19.4,29.9,18.6,28.9,18.6z"/>
		<path class="st0" d="M34.3,37.1c-1,0-1.9,0.8-1.9,1.9v6.2c0,1,0.8,1.9,1.9,1.9s1.9-0.8,1.9-1.9V39C36.2,37.9,35.4,37.1,34.3,37.1z
			"/>
	</g>
</g>
</svg>
