<?xml version="1.0" encoding="utf-8"?>
<!-- Generator: Adobe Illustrator 25.2.0, SVG Export Plug-In . SVG Version: 6.00 Build 0)  -->
<svg version="1.1" id="Capa_1" xmlns="http://www.w3.org/2000/svg" xmlns:xlink="http://www.w3.org/1999/xlink" x="0px" y="0px"
	 viewBox="0 0 512 512" style="enable-background:new 0 0 512 512;" xml:space="preserve">
<style type="text/css">
	.st0{fill:#333333;}
</style>
<g>
	<g>
		<g>
			<path class="st0" d="M378.2,163.7c-0.9-2.1-2.9-3.4-5.1-3.5c-7.8-0.6-18.3-0.7-24.8,1.6c0.6-5.7,0.2-12.2-0.3-17.5
				c-0.2-2.2-1.6-4.2-3.6-5c-2.1-0.8-4.4-0.6-6.2,0.8c-6.7,5.2-15.2,12.8-18,19.2c-0.9,2.1-1.5,4-1.8,5.9c-2.5-3.3-5.4-6.4-7.9-9.2
				c-1.6-1.6-3.8-2.2-6-1.7c-2.1,0.6-3.8,2.3-4.4,4.5c-2,8.2-4,19.5-2.1,26.3c0.4,1.2,0.7,2.4,1.2,3.5c-4.6-6.5-13-13.5-19.7-18.6
				c-2-1.5-4.5-1.7-6.7-0.7c-2.2,1-3.6,3.2-3.8,5.6c-0.2,2.9-0.3,5.7-0.4,8.3c0,1.9,1.5,3.5,3.4,3.5c0,0,0,0,0.1,0
				c1.9,0,3.4-1.5,3.5-3.4c0-2.4,0.2-4.9,0.3-7.5c10.2,7.7,17.2,14.7,19.3,19.4c3.5,7.7,2.3,13.9-3,16.3s-10.8-0.7-14.3-8.4
				c-0.7-1.5-1.2-3.5-1.7-6.1c-0.3-1.9-2.1-3.2-3.9-2.9s-3.2,2.1-2.9,3.9c0.5,3.2,1.2,5.8,2.1,7.8c0.7,1.5,1.4,2.9,2.2,4.1
				c-6.7-5.9-17.3-11.3-25.8-15.1c-2.3-1-5.1-0.7-7.2,0.8c-2.1,1.6-3.1,4.1-2.7,6.7c1.5,9.6,4.1,22.2,8.4,30.3
				c-0.9,0.9-2,1.9-2.9,2.9c-0.2,0.2-0.4,0.4-0.5,0.5c-7.6-3.3-16.1-5.9-22-7.6c-2.7-0.7-5.5,0.1-7.5,2.1c-2,2-2.6,4.9-1.8,7.6
				c0.8,2.7,2.1,6.4,3.6,10.6c-10.1,2.7-16.9,7.5-19.7,9.8c-3.4-0.7-6.7-0.2-9.8,1.4c-3.8,2-6.7,5.4-8,9.6c-1.8,5.9-0.3,12,3.5,16.2
				c-3.5,6.6-7.6,16.1-9.3,26.3c-0.4,1.9,0.9,3.6,2.8,4c0.2,0,0.4,0.1,0.6,0.1c1.7,0,3.1-1.2,3.4-2.8c1.6-9.1,5.1-17.4,8.2-23.5
				c0.3,0.1,0.6,0.2,0.8,0.3c0.8,0.3,14.7,4.9,35.8,7.8c-0.9,7.3-1.9,18.5-0.9,29.1c0.4,4.8,4.4,8.4,9.2,8.4h48
				c4.9,0,9.1-3.9,9.2-8.9c0.3-6.5,0.5-18.3-0.7-28.4c11.2-1.6,22.1-4,32.6-7.3c3.6,5.9,7.9,14,10.6,22.7c0.5,1.5,1.8,2.4,3.3,2.4
				c0.3,0,0.7,0,0.9-0.2c1.8-0.6,2.9-2.4,2.3-4.3c-2.6-9-6.9-17.3-10.6-23.4c5.9-3.8,8.8-11.5,6.5-18.7c-1.3-4.3-4.1-7.8-7.9-9.7
				c-1.3-0.7-2.7-1.1-4.1-1.4c3-1.2,5.7-2.4,7.8-3.5c2.3-1.1,3.9-3.4,4-6c0.2-2.6-1.1-5-3.4-6.4c-3.7-2.3-7.9-4.8-12.3-7
				c7.9-1.3,18.2-6.3,25.9-10.5c2.1-1.2,3.5-3.5,3.4-5.9c0-2.4-1.4-4.7-3.5-5.8c-1.8-0.9-3.7-2-5.7-2.9c6.7-1.1,15-4.9,21.4-8.2
				c2-1,3.3-3.1,3.3-5.3c0-2.2-1.1-4.3-3.1-5.4c-1.3-0.7-2.8-1.5-4.2-2.3c1-0.4,2.1-0.7,3.2-1.2c6.4-2.9,13.8-11.6,19-18.4
				C378.9,168.2,379.1,165.8,378.2,163.7z M326.4,162c1.6-3.7,7-9.4,14.8-15.7c0.7,8.7,0.5,15.8-0.7,20c-1.7,1.5-3,3.2-3.8,4.9
				c-0.5,0.8-0.7,1.8-0.9,2.6c-0.4,0.2-0.8,0.6-1.5,1c-1.7,0.8-3.5,0.8-5.3,0.1C324.7,173,323.7,168.3,326.4,162z M336.6,182.7
				c-0.5-0.1-0.9-0.1-1.4-0.1c0.4-0.3,0.7-0.5,1-0.7C336.3,182.1,336.4,182.4,336.6,182.7C336.5,182.7,336.5,182.7,336.6,182.7z
				 M306.4,161.8c6.8,7.4,11.4,13.7,12.4,17.7c0.7,2.5,0.8,4.8,0.6,6.6c-2.1,1.8-4.5,3.8-6.9,6c-1.2,0-2.3-0.5-3.4-1.2
				c-2-1.4-3.5-4-4.5-7.6C303.4,179.4,304.1,171.5,306.4,161.8z M319,203.9c-1.6-0.3-3.1-0.5-4.5-0.5c-0.1,0-0.1,0-0.2,0
				c-1.4,0-2.7,0.1-4,0.3c1.8-1.8,3.5-3.4,5.1-4.9c0.3-0.1,0.5-0.1,0.7-0.2s0.6-0.2,0.8-0.3C317.3,200.3,317.9,202.2,319,203.9z
				 M305,196.6c0.6,0.4,1.1,0.7,1.7,1c-1,0.9-2,2-3,3c-0.3-2.3-1-4.9-2.1-7.5C302.5,194.4,303.7,195.6,305,196.6z M294,221.7
				c0.3,2.5,1.3,5,2.9,7.2c-3.3-0.1-6.3,0.2-9,0.8C290,226.9,292,224.2,294,221.7z M287.2,219.2c-1.4,1.9-2.8,3.7-4.2,5.6
				c-0.7-2.9-2.1-5.9-4.4-9.1C281.4,217.9,284.4,218.9,287.2,219.2z M244.8,201.5c0-0.1,0-0.1,0.1-0.2c0.1-0.1,0.2-0.1,0.2,0
				c13.5,6.1,23.4,12.3,27.1,17.2c4.7,6.2,5.9,12.1,3.5,16.4c-1.4-0.9-2.5-1.9-3.6-2.7c-3.2-2.5-6.1-4.9-12.5-5.5
				c-2.8-0.2-5.3,0.6-7.6,1.9C249.1,222.7,246.6,213.1,244.8,201.5z M218.5,235.5c0.2-0.2,0.5-0.3,0.7-0.2c5,1.4,12,3.5,18.4,6.1
				c-3.5,3-7.7,5.3-13,5.8c-0.7,0.1-1.6,0.2-2.3,0.3c-1.7-4.4-3-8.4-3.9-11.2C218.2,236,218.3,235.7,218.5,235.5z M225.2,254
				c9.4-0.9,15.8-6.2,20.9-11.1l0.1-0.1c0.7-0.7,1.5-1.5,2.2-2.2c4.5-4.6,7.4-7.3,10.6-7c4.3,0.4,6,1.7,8.7,3.9
				c3.3,2.6,7.3,5.9,16.2,8.7c14.8,4.6,23.3,8.1,26.7,14.2c-28.9,8.9-57.3,8.3-76.4,6.3c-13.1-1.4-23.7-3.8-30.1-5.4
				C208.7,258.3,215.9,254.9,225.2,254z M282.2,326.5c-0.1,1.3-1.1,2.3-2.4,2.3h-48c-1.2,0-2.2-0.9-2.3-2.1
				c-0.8-10.1,0.1-20.7,0.9-27.7c8.3,0.9,17.5,1.6,27.3,1.6c8.1,0,16.1-0.5,23.9-1.2C282.7,308.8,282.5,320.2,282.2,326.5z
				 M322.8,266.2c2.2,1.1,3.8,3.1,4.6,5.6c1.5,5-1.1,10.4-5.8,12c-19.8,6.5-41.3,9.9-63.9,9.9c-38.1,0-66.5-9.5-67.6-9.9
				c-4.7-1.6-7.3-7-5.7-12c0.7-2.4,2.4-4.5,4.6-5.6c1.2-0.7,2.5-0.9,3.8-0.9c0.9,0,1.8,0.2,2.7,0.5c0.2,0.1,15.5,5.1,38,7.7
				c20.5,2.2,51.5,2.7,82.8-7.7C318.5,264.9,320.8,265.1,322.8,266.2z M326.6,248.7c0.1,0,0.1,0.1,0.1,0.2s-0.1,0.2-0.1,0.2
				c-3,1.4-7.3,3.4-12,5.1c-5.6-6.9-15.9-10.6-28.9-14.6c-0.6-0.2-1.1-0.4-1.7-0.6c2.9-2.4,7.5-3.5,13.1-3.3
				C303.4,236.2,314.1,240.8,326.6,248.7z M340.2,219.5c-11.1,6.2-20.4,9.7-25.6,9.7c-8.4,0.1-13.6-3.5-13.7-9.4c0-2.6,1-4.9,3-6.5
				c2.3-2,6.1-3.1,10.6-3.1h0.1C319.6,210.2,329,213.6,340.2,219.5z M334.8,204.2L334.8,204.2c-3.7-0.1-6.7-0.9-8.6-2.5
				c-1.5-1.3-2.2-3-2.2-5c0-2.1,0.8-3.7,2.4-4.9c1.9-1.5,4.7-2.2,8.2-2.2c0.1,0,0.2,0,0.4,0c4.1,0.1,11.4,2.9,20.2,7.7
				C346.1,201.6,338.9,204.2,334.8,204.2z M355.8,182c-3.4,1.5-6.3,2-8.8,1.3c-2-0.6-3.4-1.8-4.2-3.6c-0.8-1.9-0.8-3.7,0.1-5.5
				c1.1-2.2,3.5-4.2,6.7-5.7c3.7-1.7,11.6-2.2,21.6-1.7C365.1,174.9,359.5,180.3,355.8,182z"/>
		</g>
	</g>
	<g>
		<g>
			<path class="st0" d="M333.4,350.5c5-6.5,7.5-14.4,7.3-23.3c0-1.9-1.6-3.4-3.5-3.4c-1.9,0-3.4,1.6-3.4,3.5
				c0.2,8.4-2.4,15.5-7.7,21.2c-0.7,0.7-1,1.7-0.9,2.6c0.1,0.9,0.6,1.9,1.3,2.4c3.3,2.6,4.7,5.3,4.9,6.9c0.1,0.9-0.2,1.4-0.4,1.6
				c-1.5,1.8-7.5,2-13.6-2c-0.7-0.5-1.4-0.9-2.1-1.5c-1-0.8-2.3-1-3.5-0.5c-12.5,5.4-30.3,8.2-53,8.2c-24.5,0-43.6-3.2-57.1-9.4
				c-1.3-0.6-2.8-0.4-3.8,0.7c-0.9,0.9-2.1,1.8-3.3,2.6c-6.2,3.9-12.1,3.7-13.6,2c-0.1-0.2-0.6-0.7-0.4-1.8c0.3-1.9,2.1-5,6.3-7.8
				c0.8-0.6,1.4-1.5,1.5-2.5c0.1-1-0.2-2.1-0.9-2.8c-5.3-5.5-8.4-12.3-9.2-20.3c-0.2-1.9-1.9-3.3-3.7-3.1c-1.9,0.2-3.3,1.9-3.1,3.7
				c0.8,8.1,3.7,15.3,8.6,21.5c-3.5,3.1-5.7,6.7-6.3,10.2c-0.5,2.7,0.2,5.2,1.8,7.2c4.2,5.2,14,5,22.7-0.5c0.9-0.6,1.8-1.2,2.6-1.9
				c14.2,6.1,33.7,9.2,58,9.2c22.5,0,40.6-2.7,53.9-7.9c0.4,0.3,0.7,0.5,1,0.7c8.7,5.5,18.4,5.7,22.7,0.5c1.5-1.9,2.1-4.2,1.9-6.7
				C337.8,356.5,336.1,353.3,333.4,350.5z"/>
		</g>
	</g>
	<g>
		<g>
			<path class="st0" d="M278.9,248.7c-1.9,0-3.5,1.5-3.5,3.5v0.4c0,1.9,1.5,3.5,3.5,3.5s3.5-1.5,3.5-3.5v-0.4
				C282.4,250.3,280.9,248.7,278.9,248.7z"/>
		</g>
	</g>
	<g>
		<g>
			<path class="st0" d="M267.5,249.6c-1.9,0-3.5,1.5-3.5,3.5v0.4c0,1.9,1.5,3.5,3.5,3.5s3.5-1.5,3.5-3.5v-0.4
				C271,251.1,269.5,249.6,267.5,249.6z"/>
		</g>
	</g>
	<g>
		<g>
			<path class="st0" d="M259.2,239.9c-1.9,0-3.5,1.5-3.5,3.5v0.4c0,1.9,1.5,3.5,3.5,3.5c1.9,0,3.5-1.5,3.5-3.5v-0.4
				C262.7,241.4,261.2,239.9,259.2,239.9z"/>
		</g>
	</g>
	<g>
		<g>
			<path class="st0" d="M249.8,250.4c-1.9,0-3.5,1.5-3.5,3.5v0.4c0,1.9,1.5,3.5,3.5,3.5s3.5-1.5,3.5-3.5v-0.4
				C253.1,251.9,251.7,250.4,249.8,250.4z"/>
		</g>
	</g>
</g>
<g>
	<g>
		<g>
			<path class="st0" d="M184.5,133.2c-3.1-3.6-5.9-6.8-8-9.5c-0.1-0.2-0.3-0.3-0.4-0.4c-1.1-0.9-2.7-0.7-3.7,0.4
				c-2.2,2.7-4.9,5.9-8,9.5c-13.5,15.7-32.4,37.5-32.4,55.7c0,11.7,4.7,22.3,12.4,30c7.7,7.6,18.3,12.4,30,12.4
				c11.7,0,22.3-4.7,30-12.4c7.7-7.7,12.4-18.3,12.4-30C216.8,170.7,198,148.9,184.5,133.2z M200.7,215c-6.8,6.8-16,11-26.3,11
				c-10.3,0-19.5-4.2-26.3-10.9c-6.6-6.6-10.8-16-10.8-26.2c0-16.2,18.1-37.2,31.1-52.2c2.2-2.6,4.2-4.9,6-7.2
				c1.9,2.2,3.9,4.6,6,7.1c13,15.1,31.1,35.9,31.1,52.2C211.6,199,207.4,208.2,200.7,215z"/>
		</g>
	</g>
	<g>
		<g>
			<path class="st0" d="M174.6,212.6c-6.4,0-12.1-2.6-16.2-6.7c-4.1-4.1-6.7-9.9-6.7-16.2c0-1.4-1.1-2.6-2.6-2.6s-2.6,1.1-2.6,2.6
				c0,7.8,3.2,14.8,8.2,19.9c4.9,4.9,12,8.1,19.8,8.1c1.4,0,2.6-1.1,2.6-2.6C177.2,213.7,176.1,212.6,174.6,212.6z"/>
		</g>
	</g>
</g>
</svg>
