<?xml version="1.0" encoding="utf-8"?>
<!-- Generator: Adobe Illustrator 16.0.0, SVG Export Plug-In . SVG Version: 6.00 Build 0)  -->
<!DOCTYPE svg PUBLIC "-//W3C//DTD SVG 1.1//EN" "http://www.w3.org/Graphics/SVG/1.1/DTD/svg11.dtd">
<svg version="1.1" id="Layer_1" xmlns="http://www.w3.org/2000/svg" xmlns:xlink="http://www.w3.org/1999/xlink" x="0px" y="0px"
	 width="195px" height="63px" viewBox="0 0 195 63" enable-background="new 0 0 195 63" xml:space="preserve">
<g>
	<g>
		<path fill="#37B34A" d="M21.457,18.542c-7.602,5.126-21.083,0.674-21.433,5.341c-0.348,4.667,18.62,5.219,27.312-1.172
			c8.692-6.392,8.794-22.104,4.715-22.378C27.439,0.022,29.061,13.415,21.457,18.542z"/>
		<path fill="#D6DE23" d="M21.51,10.112c1.497,2.052,1.207,5.116-0.847,6.613c-2.051,1.496-5.089,0.858-6.585-1.194
			c-1.497-2.052-1.045-4.928,1.007-6.425C17.136,7.609,20.013,8.061,21.51,10.112z"/>
		<path fill="#F6921E" d="M14.199,38.637c2.526,8.815-5.875,20.26-1.544,22.034c4.331,1.774,11.768-14.197,8.376-24.439
			C17.639,25.991,1.676,19.141,0.154,22.935C-1.567,27.227,11.673,29.823,14.199,38.637z"/>
		<path fill="#FFD300" d="M5.634,36.779c2.414-0.79,5.238,0.434,6.027,2.849c0.79,2.413-0.755,5.105-3.171,5.894
			c-2.414,0.789-5.01-0.529-5.8-2.943C1.902,40.164,3.22,37.569,5.634,36.779z"/>
		<path fill="#F05A22" d="M31,51.146c9.165,0.322,17.452,11.849,20.478,8.277c3.026-3.57-10.79-15.886-21.579-15.824
			C19.11,43.66,8.782,57.795,11.919,60.415C15.47,63.379,21.835,50.825,31,51.146z"/>
		<path fill="#F48245" d="M27.026,58.408c-0.004-2.539,2.032-4.847,4.571-4.852c2.541-0.004,4.623,2.296,4.626,4.837
			c0.004,2.541-2.052,4.603-4.591,4.605C29.092,63.004,27.03,60.948,27.026,58.408z"/>
		<path fill="#90278E" d="M48.383,39.162c3.137-8.617,16.662-12.938,14.2-16.919c-2.461-3.981-17.012,4.412-20.288,14.691
			c-3.275,10.28,5.131,25.238,8.594,23.062C54.803,57.536,45.246,47.778,48.383,39.162z"/>
		<path fill="#BC73AF" d="M53.636,45.524c-2.417-0.78-3.983-3.431-3.201-5.846c0.78-2.418,3.612-3.687,6.029-2.906
			c2.417,0.78,3.743,3.373,2.962,5.791C58.646,44.979,56.053,46.305,53.636,45.524z"/>
		<path fill="#0074BB" d="M42.617,18.847C35.392,13.201,35.621-1.05,31.074,0.062c-4.546,1.11-2.07,17.413,6.694,23.703
			c8.765,6.292,26.37,3.282,25.371-0.682C62.008,18.599,49.842,24.494,42.617,18.847z"/>
		<path fill="#26A9E0" d="M51.229,15.51c-1.49,2.058-4.492,2.729-6.55,1.239c-2.057-1.49-2.389-4.576-0.899-6.633
			c1.49-2.057,4.364-2.517,6.422-1.027C52.258,10.578,52.719,13.453,51.229,15.51z"/>
	</g>
	<g>
		<path fill="#58595B" d="M77.323,49.124c0.382,0,0.716,0.063,1.001,0.187c0.286,0.124,0.523,0.295,0.71,0.514
			s0.328,0.472,0.423,0.762c0.093,0.29,0.141,0.604,0.141,0.944c0,0.333-0.048,0.646-0.141,0.939
			c-0.095,0.292-0.236,0.547-0.423,0.762c-0.187,0.216-0.424,0.385-0.71,0.51c-0.285,0.123-0.619,0.186-1.001,0.186
			c-0.384,0-0.717-0.063-1.002-0.186c-0.286-0.125-0.523-0.294-0.71-0.51c-0.188-0.215-0.33-0.469-0.423-0.762
			c-0.094-0.293-0.141-0.606-0.141-0.939c0-0.34,0.047-0.654,0.141-0.944s0.235-0.543,0.423-0.762
			c0.187-0.219,0.424-0.39,0.71-0.514C76.606,49.187,76.939,49.124,77.323,49.124z M77.323,49.793c-0.282,0-0.522,0.048-0.716,0.143
			s-0.356,0.222-0.484,0.382c-0.126,0.158-0.219,0.343-0.277,0.551c-0.057,0.208-0.084,0.43-0.084,0.662
			c0,0.235,0.028,0.454,0.084,0.662c0.058,0.208,0.15,0.393,0.277,0.551c0.128,0.161,0.29,0.285,0.484,0.377
			s0.434,0.137,0.716,0.137c0.281,0,0.52-0.044,0.715-0.137c0.194-0.092,0.356-0.216,0.482-0.377
			c0.128-0.158,0.22-0.343,0.277-0.551c0.058-0.208,0.086-0.427,0.086-0.662c0-0.232-0.028-0.454-0.086-0.662
			c-0.057-0.208-0.149-0.393-0.277-0.551c-0.126-0.161-0.289-0.288-0.482-0.382C77.843,49.841,77.604,49.793,77.323,49.793z
			 M76.779,54.913c0.094,0,0.179,0.025,0.257,0.075c0.076,0.049,0.116,0.13,0.116,0.243v2.078c0,0.128,0.063,0.193,0.191,0.193
			h4.774c0.094,0,0.161,0.031,0.2,0.1c0.041,0.066,0.061,0.145,0.061,0.239c0,0.091-0.02,0.17-0.061,0.238
			c-0.04,0.066-0.106,0.1-0.2,0.1h-5.017c-0.262,0-0.443-0.051-0.544-0.153c-0.099-0.103-0.15-0.29-0.15-0.556v-2.239
			c0-0.112,0.04-0.194,0.116-0.243C76.6,54.938,76.684,54.913,76.779,54.913z M81.753,48.637c0.095,0,0.179,0.025,0.252,0.074
			c0.075,0.048,0.112,0.13,0.112,0.244v6.468c0,0.112-0.037,0.192-0.112,0.243c-0.073,0.05-0.157,0.074-0.252,0.074
			c-0.092,0-0.179-0.023-0.256-0.074c-0.078-0.05-0.116-0.13-0.116-0.243v-6.468c0-0.113,0.039-0.195,0.116-0.244
			C81.574,48.663,81.661,48.637,81.753,48.637z"/>
		<path fill="#58595B" d="M86.811,48.615c0.093,0,0.179,0.026,0.255,0.077c0.078,0.047,0.116,0.129,0.116,0.243v0.934h1.884
			c0.087,0,0.151,0.031,0.191,0.095s0.06,0.143,0.06,0.233c0,0.099-0.02,0.181-0.06,0.244c-0.04,0.063-0.104,0.095-0.191,0.095
			h-1.884v0.775c0,0.358,0.053,0.654,0.161,0.883c0.108,0.23,0.293,0.451,0.554,0.665c0.249,0.203,0.475,0.382,0.675,0.535
			c0.202,0.15,0.399,0.3,0.595,0.45c0.081,0.064,0.125,0.144,0.136,0.238c0.01,0.095-0.012,0.18-0.064,0.25
			c-0.056,0.078-0.12,0.128-0.198,0.149c-0.077,0.021-0.162,0-0.257-0.063c-0.154-0.113-0.328-0.245-0.522-0.393
			c-0.197-0.148-0.408-0.314-0.636-0.499c-0.275-0.219-0.472-0.409-0.589-0.567c-0.117-0.16-0.188-0.293-0.215-0.398h-0.01
			c-0.028,0.114-0.099,0.25-0.218,0.414c-0.117,0.161-0.314,0.354-0.588,0.572c-0.236,0.185-0.467,0.363-0.691,0.535
			c-0.226,0.174-0.434,0.33-0.63,0.472c-0.085,0.071-0.17,0.095-0.25,0.068c-0.081-0.023-0.149-0.076-0.202-0.153
			c-0.054-0.079-0.079-0.164-0.077-0.256c0.004-0.091,0.05-0.168,0.137-0.232c0.235-0.177,0.47-0.354,0.704-0.53
			c0.235-0.177,0.478-0.367,0.727-0.572c0.261-0.219,0.446-0.444,0.554-0.675c0.107-0.229,0.161-0.524,0.161-0.883v-0.786h-1.944
			c-0.087,0-0.15-0.032-0.19-0.095c-0.042-0.063-0.062-0.145-0.062-0.244c0-0.091,0.02-0.17,0.062-0.233
			c0.04-0.063,0.103-0.095,0.19-0.095h1.944v-0.934c0-0.113,0.039-0.195,0.116-0.243C86.63,48.641,86.716,48.615,86.811,48.615z
			 M86.064,55.125c0.095,0,0.18,0.023,0.257,0.074s0.116,0.132,0.116,0.245v1.864c0,0.128,0.063,0.193,0.191,0.193h4.813
			c0.095,0,0.162,0.031,0.202,0.1c0.041,0.066,0.061,0.145,0.061,0.239c0,0.091-0.02,0.17-0.061,0.238
			c-0.04,0.066-0.106,0.1-0.202,0.1h-5.056c-0.261,0-0.443-0.051-0.542-0.153c-0.102-0.103-0.151-0.29-0.151-0.556v-2.025
			c0-0.113,0.038-0.195,0.115-0.245C85.885,55.149,85.97,55.125,86.064,55.125z M91.081,48.637c0.094,0,0.177,0.025,0.252,0.074
			c0.073,0.048,0.109,0.13,0.109,0.244v6.468c0,0.112-0.037,0.192-0.109,0.243c-0.075,0.05-0.158,0.074-0.252,0.074
			c-0.095,0-0.178-0.023-0.253-0.074c-0.073-0.05-0.111-0.13-0.111-0.243v-3.085h-1.672c-0.093,0-0.161-0.034-0.2-0.102
			c-0.041-0.067-0.062-0.146-0.062-0.239c0-0.099,0.021-0.179,0.062-0.244c0.04-0.065,0.107-0.097,0.2-0.097h1.672v-2.703
			c0-0.113,0.038-0.195,0.111-0.244C90.903,48.663,90.986,48.637,91.081,48.637z"/>
		<path fill="#58595B" d="M95.4,51.278c0.094,0,0.179,0.023,0.257,0.074c0.076,0.05,0.115,0.129,0.115,0.243v1.719
			c0.471-0.016,0.951-0.037,1.441-0.066c0.489-0.026,0.997-0.066,1.52-0.116c0.074-0.005,0.136,0.016,0.188,0.07
			c0.05,0.052,0.078,0.125,0.084,0.218c0.007,0.098-0.008,0.182-0.044,0.248c-0.037,0.069-0.096,0.106-0.175,0.112
			c-0.894,0.078-1.777,0.133-2.65,0.165c-0.872,0.031-1.776,0.047-2.708,0.047c-0.095,0-0.162-0.032-0.203-0.095
			c-0.04-0.064-0.059-0.142-0.059-0.234c0-0.091,0.02-0.169,0.059-0.232c0.041-0.063,0.108-0.095,0.203-0.095
			c0.266,0,0.535,0,0.804,0s0.541-0.005,0.816-0.011v-1.729c0-0.113,0.035-0.192,0.106-0.243
			C95.224,51.302,95.306,51.278,95.4,51.278z M98.099,49.332c0.101,0.103,0.152,0.288,0.152,0.557v0.572
			c0,0.324-0.017,0.635-0.051,0.928c-0.035,0.292-0.087,0.569-0.161,0.832c-0.027,0.099-0.08,0.167-0.161,0.207
			s-0.175,0.048-0.282,0.026c-0.095-0.021-0.166-0.068-0.216-0.144c-0.051-0.074-0.063-0.16-0.034-0.26
			c0.059-0.269,0.104-0.531,0.134-0.789c0.031-0.258,0.046-0.538,0.046-0.833v-0.382c0-0.135-0.064-0.201-0.191-0.201h-3.273
			c-0.094,0-0.162-0.031-0.202-0.095c-0.041-0.066-0.061-0.143-0.061-0.235c0-0.097,0.02-0.179,0.061-0.242
			c0.04-0.065,0.108-0.098,0.202-0.098h3.494C97.817,49.177,97.998,49.229,98.099,49.332z M97.555,54.862
			c0.941,0,1.659,0.153,2.156,0.46s0.746,0.755,0.746,1.341c0,0.588-0.249,1.034-0.746,1.342c-0.497,0.306-1.214,0.461-2.156,0.461
			c-0.94,0-1.659-0.156-2.154-0.461c-0.497-0.309-0.746-0.754-0.746-1.342c0-0.585,0.249-1.034,0.746-1.341
			C95.896,55.015,96.615,54.862,97.555,54.862z M97.555,55.487c-0.745,0-1.292,0.105-1.641,0.317
			c-0.348,0.212-0.525,0.497-0.525,0.858c0,0.354,0.177,0.636,0.525,0.849c0.349,0.211,0.896,0.318,1.641,0.318
			c0.745,0,1.293-0.107,1.643-0.318c0.348-0.213,0.523-0.496,0.523-0.849c0-0.361-0.175-0.646-0.523-0.858
			C98.848,55.592,98.3,55.487,97.555,55.487z M100.021,48.637c0.095,0,0.179,0.025,0.253,0.074c0.074,0.048,0.111,0.13,0.111,0.244
			v2.344h1.148c0.094,0,0.162,0.032,0.202,0.1c0.039,0.066,0.059,0.146,0.059,0.237c0,0.1-0.02,0.182-0.059,0.25
			c-0.04,0.066-0.108,0.1-0.202,0.1h-1.148v2.439c0,0.113-0.037,0.194-0.111,0.243c-0.074,0.05-0.158,0.074-0.253,0.074
			c-0.092,0-0.176-0.024-0.25-0.074c-0.074-0.049-0.111-0.129-0.111-0.243v-5.472c0-0.113,0.037-0.195,0.111-0.244
			C99.845,48.663,99.929,48.637,100.021,48.637z"/>
		<path fill="#58595B" d="M104.999,49.04c0.376,0,0.703,0.061,0.982,0.181c0.278,0.12,0.509,0.283,0.689,0.489
			c0.181,0.203,0.316,0.445,0.408,0.725c0.092,0.279,0.137,0.581,0.137,0.907c0,0.316-0.044,0.617-0.137,0.896
			c-0.091,0.278-0.227,0.523-0.408,0.731c-0.181,0.208-0.411,0.372-0.689,0.488c-0.279,0.116-0.606,0.174-0.982,0.174
			c-0.377,0-0.704-0.058-0.982-0.174c-0.28-0.116-0.509-0.279-0.689-0.488c-0.182-0.208-0.318-0.453-0.409-0.731
			c-0.091-0.278-0.136-0.579-0.136-0.896c0-0.326,0.045-0.627,0.136-0.907c0.091-0.28,0.227-0.522,0.409-0.725
			c0.181-0.206,0.41-0.369,0.689-0.489C104.295,49.1,104.622,49.04,104.999,49.04z M104.999,49.709c-0.269,0-0.5,0.043-0.69,0.132
			c-0.19,0.087-0.347,0.206-0.468,0.354c-0.12,0.149-0.208,0.32-0.261,0.521c-0.055,0.198-0.082,0.405-0.082,0.625
			c0,0.219,0.026,0.427,0.082,0.625c0.053,0.198,0.141,0.372,0.261,0.52c0.121,0.148,0.278,0.267,0.468,0.356
			c0.191,0.087,0.422,0.132,0.69,0.132c0.268,0,0.497-0.045,0.69-0.132c0.191-0.089,0.348-0.208,0.468-0.356
			c0.122-0.147,0.208-0.322,0.262-0.52c0.053-0.198,0.081-0.406,0.081-0.625c0-0.22-0.028-0.427-0.081-0.625
			c-0.054-0.2-0.141-0.372-0.262-0.521c-0.12-0.149-0.277-0.268-0.468-0.354C105.496,49.753,105.267,49.709,104.999,49.709z
			 M109.823,55.004c0.101,0.103,0.15,0.288,0.15,0.557v2.534c0,0.113-0.038,0.195-0.115,0.242c-0.078,0.05-0.164,0.075-0.257,0.075
			c-0.095,0-0.179-0.025-0.252-0.075c-0.075-0.047-0.111-0.129-0.111-0.242v-2.387c0-0.126-0.063-0.189-0.191-0.189h-4.754
			c-0.088,0-0.152-0.032-0.192-0.095c-0.04-0.063-0.06-0.143-0.06-0.235c0-0.097,0.02-0.179,0.06-0.242
			c0.041-0.063,0.104-0.095,0.192-0.095h4.985C109.541,54.851,109.723,54.901,109.823,55.004z M109.612,48.637
			c0.092,0,0.177,0.025,0.252,0.074c0.073,0.048,0.109,0.13,0.109,0.244v5.037c0,0.113-0.037,0.195-0.109,0.243
			c-0.075,0.05-0.16,0.075-0.252,0.075c-0.095,0-0.179-0.025-0.253-0.075c-0.074-0.048-0.111-0.129-0.111-0.243v-1.358h-1.44
			c-0.088,0-0.15-0.032-0.191-0.095c-0.041-0.063-0.061-0.145-0.061-0.243c0-0.092,0.02-0.171,0.061-0.234
			c0.041-0.063,0.103-0.095,0.191-0.095h1.44v-1.209h-1.44c-0.088,0-0.15-0.033-0.191-0.102c-0.041-0.066-0.061-0.145-0.061-0.237
			s0.02-0.168,0.061-0.233c0.041-0.064,0.103-0.096,0.191-0.096h1.44v-1.134c0-0.113,0.037-0.195,0.111-0.244
			C109.433,48.663,109.517,48.637,109.612,48.637z"/>
		<path fill="#58595B" d="M114.658,49.124c0.094,0,0.179,0.026,0.257,0.075c0.077,0.049,0.115,0.134,0.115,0.254v1.707
			c0,0.233,0.016,0.443,0.046,0.632c0.03,0.187,0.076,0.364,0.141,0.53c0.063,0.167,0.149,0.327,0.257,0.483
			c0.105,0.155,0.24,0.321,0.404,0.498c0.448,0.493,0.875,0.931,1.279,1.313c0.072,0.063,0.103,0.142,0.089,0.24
			c-0.013,0.095-0.05,0.177-0.11,0.248c-0.054,0.055-0.124,0.095-0.211,0.11c-0.087,0.019-0.168-0.01-0.242-0.089
			c-0.181-0.169-0.365-0.351-0.554-0.546c-0.189-0.195-0.393-0.411-0.615-0.651c-0.161-0.171-0.291-0.319-0.393-0.446
			c-0.102-0.126-0.184-0.24-0.247-0.334c-0.063-0.095-0.111-0.177-0.141-0.248s-0.053-0.14-0.066-0.202h-0.009
			c-0.013,0.062-0.036,0.133-0.066,0.207s-0.077,0.158-0.141,0.253c-0.063,0.095-0.147,0.208-0.25,0.335
			c-0.105,0.126-0.237,0.275-0.398,0.446c-0.216,0.24-0.426,0.464-0.63,0.672c-0.205,0.208-0.426,0.426-0.659,0.651
			c-0.082,0.079-0.167,0.108-0.252,0.087c-0.088-0.021-0.162-0.066-0.223-0.129c-0.06-0.076-0.092-0.161-0.095-0.248
			c-0.004-0.09,0.032-0.169,0.105-0.24c0.491-0.472,0.953-0.949,1.39-1.429c0.161-0.177,0.295-0.343,0.403-0.498
			c0.108-0.156,0.193-0.316,0.257-0.483c0.063-0.166,0.109-0.343,0.141-0.53c0.029-0.188,0.045-0.398,0.045-0.632v-1.707
			c0-0.12,0.038-0.206,0.116-0.254C114.477,49.15,114.563,49.124,114.658,49.124z M118.807,48.637c0.094,0,0.181,0.025,0.257,0.074
			c0.078,0.048,0.116,0.13,0.116,0.244v8.438c0,0.113-0.038,0.195-0.116,0.245c-0.077,0.05-0.164,0.074-0.257,0.074
			c-0.093,0-0.178-0.024-0.253-0.074c-0.073-0.05-0.109-0.132-0.109-0.245v-8.438c0-0.113,0.037-0.195,0.109-0.244
			C118.629,48.663,118.713,48.637,118.807,48.637z"/>
		<path fill="#58595B" d="M123.871,48.531c0.095,0,0.181,0.026,0.257,0.074c0.078,0.05,0.116,0.132,0.116,0.245v0.934h1.883
			c0.088,0,0.153,0.032,0.192,0.095c0.04,0.063,0.059,0.143,0.059,0.232c0,0.101-0.02,0.181-0.059,0.246
			c-0.04,0.063-0.104,0.095-0.192,0.095h-1.883v0.657c0,0.369,0.053,0.665,0.155,0.886c0.104,0.222,0.284,0.43,0.54,0.62
			c0.256,0.198,0.492,0.375,0.71,0.53c0.219,0.155,0.408,0.29,0.568,0.403c0.088,0.055,0.138,0.132,0.151,0.228
			c0.013,0.095-0.006,0.181-0.061,0.26c-0.054,0.071-0.12,0.119-0.202,0.143c-0.081,0.026-0.167,0.005-0.262-0.058
			c-0.122-0.077-0.285-0.19-0.493-0.339s-0.426-0.31-0.654-0.488c-0.282-0.205-0.483-0.384-0.6-0.537
			c-0.117-0.15-0.188-0.282-0.215-0.396h-0.012c-0.02,0.119-0.091,0.258-0.216,0.413c-0.124,0.156-0.323,0.339-0.6,0.552
			c-0.234,0.176-0.464,0.343-0.688,0.501c-0.226,0.161-0.435,0.307-0.63,0.441c-0.087,0.057-0.171,0.073-0.252,0.046
			c-0.08-0.024-0.149-0.074-0.202-0.153c-0.046-0.076-0.068-0.162-0.066-0.253c0.004-0.092,0.053-0.171,0.148-0.235
			c0.24-0.162,0.477-0.327,0.709-0.498c0.231-0.169,0.475-0.348,0.73-0.541c0.256-0.198,0.434-0.408,0.54-0.63
			c0.103-0.222,0.155-0.517,0.155-0.886V50.45h-1.945c-0.087,0-0.15-0.032-0.189-0.095c-0.042-0.065-0.062-0.145-0.062-0.246
			c0-0.089,0.02-0.168,0.062-0.232c0.04-0.063,0.103-0.095,0.189-0.095h1.945V48.85c0-0.113,0.039-0.195,0.115-0.245
			C123.691,48.557,123.777,48.531,123.871,48.531z M125.704,54.775c0.92,0,1.629,0.155,2.126,0.466
			c0.496,0.312,0.745,0.768,0.745,1.369c0,0.602-0.25,1.058-0.745,1.369c-0.497,0.311-1.206,0.467-2.126,0.467
			c-0.919,0-1.625-0.156-2.12-0.467c-0.492-0.311-0.74-0.767-0.74-1.369c0-0.601,0.248-1.057,0.74-1.369
			C124.078,54.93,124.785,54.775,125.704,54.775z M125.704,55.413c-0.732,0-1.27,0.105-1.615,0.316
			c-0.347,0.213-0.52,0.506-0.52,0.88s0.173,0.667,0.52,0.881c0.346,0.211,0.883,0.316,1.615,0.316c0.733,0,1.272-0.105,1.623-0.316
			c0.348-0.213,0.523-0.506,0.523-0.881s-0.175-0.667-0.523-0.88C126.976,55.519,126.437,55.413,125.704,55.413z M128.143,48.637
			c0.094,0,0.177,0.025,0.252,0.074c0.072,0.048,0.109,0.13,0.109,0.244v5.375c0,0.112-0.037,0.194-0.109,0.244
			c-0.075,0.05-0.158,0.074-0.252,0.074c-0.095,0-0.178-0.023-0.253-0.074c-0.074-0.05-0.111-0.132-0.111-0.244v-2.164h-1.672
			c-0.094,0-0.161-0.032-0.2-0.101c-0.041-0.066-0.062-0.145-0.062-0.237c0-0.1,0.021-0.182,0.062-0.245
			c0.04-0.063,0.106-0.095,0.2-0.095h1.672v-2.534c0-0.113,0.037-0.195,0.111-0.244C127.965,48.663,128.048,48.637,128.143,48.637z"
			/>
		<path fill="#58595B" d="M134.437,53.875c0.094,0,0.179,0.024,0.257,0.074c0.077,0.049,0.115,0.129,0.115,0.243v1.867h3.566
			c0.094,0,0.161,0.031,0.201,0.095c0.041,0.063,0.061,0.145,0.061,0.245c0,0.09-0.02,0.169-0.061,0.232
			c-0.04,0.063-0.107,0.095-0.201,0.095h-7.876c-0.093,0-0.161-0.032-0.202-0.095c-0.04-0.063-0.059-0.142-0.059-0.232
			c0-0.1,0.02-0.182,0.059-0.245c0.041-0.063,0.108-0.095,0.202-0.095h3.576v-1.867c0-0.113,0.036-0.194,0.111-0.243
			C134.258,53.899,134.342,53.875,134.437,53.875z M134.437,49.04c0.094,0,0.179,0.026,0.257,0.081
			c0.077,0.054,0.115,0.136,0.115,0.249v0.657c0,0.254,0.016,0.475,0.046,0.663c0.03,0.187,0.082,0.358,0.157,0.513
			c0.073,0.156,0.177,0.301,0.311,0.43c0.135,0.132,0.302,0.268,0.504,0.409c0.303,0.206,0.62,0.412,0.952,0.62
			c0.333,0.208,0.686,0.424,1.063,0.643c0.072,0.042,0.115,0.111,0.121,0.206c0.007,0.095-0.013,0.182-0.062,0.26
			c-0.046,0.084-0.111,0.144-0.19,0.176c-0.082,0.031-0.158,0.026-0.232-0.016c-0.316-0.185-0.644-0.38-0.982-0.588
			c-0.338-0.209-0.652-0.413-0.942-0.61c-0.375-0.254-0.644-0.476-0.804-0.664c-0.161-0.187-0.263-0.351-0.302-0.493h-0.01
			c-0.041,0.149-0.141,0.316-0.302,0.503c-0.162,0.187-0.431,0.409-0.805,0.662c-0.295,0.199-0.612,0.402-0.948,0.611
			c-0.335,0.208-0.662,0.404-0.977,0.588c-0.08,0.042-0.159,0.047-0.236,0.016c-0.076-0.032-0.144-0.091-0.196-0.175
			c-0.046-0.078-0.067-0.167-0.06-0.265c0.007-0.098,0.046-0.168,0.119-0.211c0.377-0.219,0.732-0.435,1.064-0.643
			c0.331-0.208,0.65-0.414,0.952-0.62c0.2-0.141,0.368-0.277,0.502-0.409c0.134-0.129,0.238-0.274,0.313-0.43
			c0.073-0.154,0.124-0.326,0.156-0.513c0.03-0.188,0.045-0.409,0.045-0.663v-0.657c0-0.113,0.038-0.195,0.116-0.249
			C134.256,49.066,134.342,49.04,134.437,49.04z"/>
		<path fill="#58595B" d="M140.458,49.177c0.095,0,0.181,0.026,0.257,0.076c0.078,0.048,0.116,0.129,0.116,0.243v3.785
			c0,0.136,0.064,0.202,0.191,0.202c0.653,0,1.296-0.013,1.929-0.037c0.635-0.025,1.231-0.069,1.789-0.132
			c0.08-0.016,0.145,0.005,0.195,0.058c0.052,0.053,0.083,0.128,0.096,0.227c0.013,0.1,0,0.186-0.04,0.26
			c-0.041,0.075-0.102,0.115-0.181,0.123c-0.485,0.057-1.06,0.098-1.728,0.126c-0.669,0.029-1.436,0.042-2.301,0.042
			c-0.263,0-0.443-0.05-0.544-0.153c-0.102-0.103-0.152-0.288-0.152-0.557v-3.945c0-0.113,0.038-0.195,0.117-0.243
			C140.279,49.203,140.366,49.177,140.458,49.177z M141.658,54.978c0.095,0,0.179,0.024,0.257,0.074
			c0.077,0.05,0.116,0.13,0.116,0.243v2.014c0,0.128,0.063,0.193,0.191,0.193h4.814c0.095,0,0.162,0.031,0.202,0.1
			c0.041,0.066,0.061,0.145,0.061,0.239c0,0.091-0.02,0.17-0.061,0.238c-0.04,0.066-0.107,0.1-0.202,0.1h-5.057
			c-0.261,0-0.443-0.051-0.543-0.153c-0.1-0.103-0.152-0.29-0.152-0.556v-2.175c0-0.112,0.04-0.193,0.116-0.243
			C141.479,55.001,141.563,54.978,141.658,54.978z M146.675,48.637c0.093,0,0.177,0.025,0.251,0.074
			c0.073,0.048,0.11,0.13,0.11,0.244v6.468c0,0.112-0.037,0.192-0.11,0.243c-0.075,0.05-0.158,0.074-0.251,0.074
			c-0.095,0-0.179-0.023-0.253-0.074c-0.072-0.05-0.11-0.13-0.11-0.243v-3.139h-2.508c-0.087,0-0.152-0.03-0.191-0.096
			c-0.04-0.063-0.061-0.145-0.061-0.243c0-0.092,0.021-0.169,0.061-0.235c0.04-0.063,0.104-0.095,0.191-0.095h2.508v-1.018h-2.508
			c-0.087,0-0.152-0.032-0.191-0.095s-0.061-0.145-0.061-0.243c0-0.092,0.021-0.171,0.061-0.234c0.04-0.063,0.104-0.095,0.191-0.095
			h2.508v-0.976c0-0.113,0.038-0.195,0.11-0.244C146.496,48.663,146.58,48.637,146.675,48.637z"/>
		<path fill="#58595B" d="M153.955,49.496c0.04,0.063,0.06,0.145,0.06,0.245c0,0.09-0.02,0.171-0.06,0.237
			c-0.041,0.067-0.104,0.101-0.192,0.101H151.9v1.2c0,0.232,0.012,0.443,0.035,0.63c0.022,0.188,0.066,0.361,0.125,0.52
			c0.062,0.158,0.143,0.316,0.248,0.472c0.104,0.156,0.234,0.316,0.396,0.488c0.228,0.24,0.454,0.471,0.674,0.693
			c0.223,0.223,0.425,0.417,0.606,0.578c0.073,0.071,0.105,0.154,0.095,0.249c-0.011,0.096-0.042,0.175-0.095,0.239
			c-0.068,0.063-0.144,0.105-0.228,0.121c-0.083,0.019-0.162-0.01-0.236-0.089c-0.169-0.148-0.35-0.322-0.543-0.52
			c-0.196-0.198-0.407-0.417-0.635-0.657c-0.161-0.17-0.29-0.313-0.388-0.435c-0.098-0.119-0.175-0.227-0.231-0.319
			c-0.058-0.09-0.1-0.17-0.126-0.237s-0.046-0.129-0.061-0.185h-0.011c-0.013,0.063-0.033,0.129-0.059,0.195
			c-0.028,0.069-0.07,0.148-0.126,0.237c-0.058,0.092-0.136,0.201-0.237,0.319c-0.099,0.121-0.227,0.265-0.382,0.435
			c-0.229,0.24-0.447,0.464-0.654,0.672c-0.208,0.208-0.43,0.419-0.666,0.631c-0.079,0.078-0.164,0.107-0.252,0.086
			c-0.085-0.024-0.157-0.063-0.211-0.129c-0.061-0.076-0.094-0.161-0.1-0.253c-0.008-0.092,0.026-0.169,0.1-0.235
			c0.256-0.232,0.499-0.464,0.725-0.693c0.229-0.229,0.456-0.464,0.686-0.704c0.161-0.171,0.293-0.332,0.398-0.488
			c0.103-0.156,0.186-0.314,0.246-0.472c0.06-0.158,0.102-0.332,0.125-0.52c0.024-0.187,0.036-0.398,0.036-0.63v-1.2h-1.904
			c-0.088,0-0.152-0.033-0.191-0.101c-0.04-0.066-0.061-0.147-0.061-0.237c0-0.1,0.021-0.182,0.061-0.245
			c0.04-0.063,0.103-0.095,0.191-0.095h4.512C153.851,49.401,153.914,49.433,153.955,49.496z M155.435,48.637
			c0.095,0,0.179,0.025,0.257,0.074c0.077,0.048,0.116,0.13,0.116,0.244v2.958h1.279c0.095,0,0.161,0.033,0.202,0.1
			c0.041,0.067,0.061,0.148,0.061,0.24c0,0.098-0.02,0.181-0.061,0.248c-0.041,0.067-0.107,0.1-0.202,0.1h-1.279v4.791
			c0,0.113-0.04,0.195-0.116,0.245c-0.078,0.05-0.162,0.074-0.257,0.074c-0.094,0-0.177-0.024-0.252-0.074
			c-0.074-0.05-0.111-0.132-0.111-0.245v-8.438c0-0.113,0.037-0.195,0.111-0.244C155.258,48.663,155.341,48.637,155.435,48.637z"/>
		<path fill="#58595B" d="M162.495,49.269c0.102,0.103,0.15,0.287,0.15,0.556v1.239c0,0.269-0.049,0.455-0.15,0.557
			c-0.1,0.103-0.282,0.155-0.543,0.155h-2.377c-0.074,0-0.124,0.011-0.151,0.036c-0.026,0.025-0.04,0.077-0.04,0.154v1.007
			c0,0.126,0.063,0.19,0.191,0.19c0.771,0,1.479-0.019,2.12-0.058s1.265-0.103,1.868-0.195c0.082-0.016,0.148,0.006,0.201,0.063
			c0.055,0.056,0.088,0.132,0.102,0.222c0.013,0.092,0.001,0.177-0.035,0.25c-0.037,0.074-0.096,0.119-0.176,0.132
			c-0.523,0.078-1.127,0.137-1.813,0.179c-0.686,0.043-1.515,0.066-2.488,0.066c-0.263,0-0.443-0.053-0.545-0.156
			c-0.1-0.101-0.15-0.287-0.15-0.556v-1.26c0-0.269,0.05-0.454,0.15-0.557c0.102-0.103,0.282-0.155,0.545-0.155h2.386
			c0.067,0,0.116-0.011,0.146-0.037c0.03-0.024,0.044-0.075,0.044-0.153v-0.986c0-0.077-0.014-0.129-0.044-0.153
			c-0.031-0.026-0.079-0.037-0.146-0.037h-2.84c-0.087,0-0.149-0.034-0.186-0.103c-0.037-0.066-0.055-0.143-0.055-0.227
			c0-0.092,0.018-0.168,0.055-0.233c0.037-0.062,0.099-0.095,0.186-0.095h3.052C162.212,49.115,162.395,49.166,162.495,49.269z
			 M160.158,54.68c0.094,0,0.178,0.025,0.25,0.074c0.075,0.05,0.112,0.129,0.112,0.235v0.913h4.271v-0.913
			c0-0.105,0.036-0.185,0.105-0.235c0.071-0.048,0.154-0.074,0.247-0.074c0.095,0,0.178,0.025,0.251,0.074
			c0.075,0.05,0.112,0.129,0.112,0.235v2.555c0,0.269-0.051,0.454-0.152,0.556c-0.101,0.103-0.282,0.153-0.544,0.153h-4.32
			c-0.263,0-0.443-0.05-0.544-0.153c-0.099-0.103-0.15-0.287-0.15-0.556v-2.555c0-0.105,0.038-0.185,0.111-0.235
			C159.982,54.705,160.065,54.68,160.158,54.68z M160.521,57.447c0,0.113,0.054,0.17,0.162,0.17h3.938c0.112,0,0.17-0.057,0.17-0.17
			v-0.911h-4.271V57.447z M165.144,48.637c0.095,0,0.178,0.025,0.251,0.074c0.075,0.048,0.112,0.13,0.112,0.244v4.868
			c0,0.112-0.037,0.192-0.112,0.243c-0.074,0.05-0.157,0.074-0.251,0.074c-0.092,0-0.179-0.023-0.257-0.074
			c-0.076-0.05-0.116-0.13-0.116-0.243v-4.868c0-0.113,0.04-0.195,0.116-0.244C164.964,48.663,165.051,48.637,165.144,48.637z"/>
		<path fill="#58595B" d="M172.708,49.485c0.041,0.063,0.061,0.145,0.061,0.244c0,0.091-0.02,0.173-0.061,0.239
			c-0.04,0.067-0.104,0.1-0.19,0.1h-1.875v1.221c0,0.232,0.013,0.443,0.041,0.63c0.026,0.187,0.07,0.359,0.132,0.52
			c0.059,0.158,0.142,0.316,0.247,0.472c0.103,0.155,0.236,0.316,0.397,0.488c0.228,0.24,0.452,0.471,0.675,0.693
			c0.222,0.222,0.423,0.417,0.604,0.578c0.074,0.071,0.105,0.155,0.096,0.249c-0.011,0.096-0.042,0.175-0.096,0.239
			c-0.066,0.063-0.143,0.105-0.226,0.121c-0.084,0.019-0.164-0.011-0.237-0.09c-0.167-0.147-0.348-0.32-0.544-0.519
			c-0.194-0.198-0.406-0.417-0.633-0.657c-0.162-0.17-0.292-0.314-0.389-0.435c-0.098-0.119-0.175-0.227-0.237-0.319
			c-0.059-0.089-0.103-0.168-0.13-0.237c-0.026-0.066-0.046-0.129-0.06-0.185h-0.01c-0.013,0.063-0.034,0.129-0.061,0.195
			c-0.028,0.068-0.07,0.147-0.132,0.239c-0.059,0.091-0.141,0.199-0.24,0.317c-0.102,0.122-0.229,0.265-0.384,0.436
			c-0.229,0.24-0.447,0.464-0.655,0.672c-0.207,0.208-0.43,0.419-0.663,0.633c-0.082,0.076-0.165,0.105-0.253,0.084
			c-0.087-0.022-0.157-0.063-0.211-0.129c-0.061-0.077-0.094-0.161-0.102-0.253c-0.007-0.092,0.027-0.168,0.102-0.234
			c0.254-0.232,0.497-0.464,0.724-0.693c0.229-0.229,0.458-0.464,0.686-0.704c0.161-0.171,0.294-0.333,0.398-0.488
			c0.104-0.156,0.187-0.314,0.246-0.472c0.061-0.161,0.104-0.333,0.132-0.52c0.027-0.187,0.04-0.398,0.04-0.63v-1.221h-1.913
			c-0.087,0-0.152-0.033-0.193-0.1c-0.04-0.066-0.059-0.148-0.059-0.239c0-0.099,0.02-0.181,0.059-0.244
			c0.041-0.063,0.105-0.095,0.193-0.095h4.533C172.603,49.39,172.668,49.422,172.708,49.485z M174.4,48.637
			c0.093,0,0.179,0.025,0.257,0.074c0.078,0.048,0.116,0.13,0.116,0.244v8.438c0,0.113-0.039,0.195-0.116,0.245
			c-0.078,0.05-0.164,0.074-0.257,0.074c-0.095,0-0.178-0.024-0.253-0.074c-0.072-0.05-0.109-0.132-0.109-0.245v-8.438
			c0-0.113,0.037-0.195,0.109-0.244C174.222,48.663,174.305,48.637,174.4,48.637z"/>
		<path fill="#58595B" d="M182.547,52.858c0.081-0.016,0.145,0.005,0.196,0.063c0.05,0.056,0.082,0.129,0.095,0.222
			c0.006,0.1-0.008,0.182-0.045,0.245s-0.096,0.102-0.175,0.116c-0.404,0.057-0.827,0.1-1.27,0.132
			c-0.443,0.031-0.9,0.058-1.37,0.079v1.474c0,0.106-0.037,0.182-0.111,0.229c-0.074,0.045-0.161,0.069-0.262,0.069
			c-0.094,0-0.178-0.024-0.252-0.069c-0.074-0.047-0.109-0.124-0.109-0.229v-1.441c-0.384,0.015-0.769,0.022-1.155,0.026
			c-0.385,0.004-0.766,0.005-1.143,0.005c-0.086,0-0.15-0.032-0.191-0.096c-0.04-0.063-0.061-0.14-0.061-0.232
			s0.021-0.17,0.061-0.235c0.041-0.063,0.105-0.095,0.191-0.095c0.88,0,1.797-0.013,2.75-0.042
			C180.649,53.05,181.599,52.977,182.547,52.858z M179.707,48.839c0.389,0,0.728,0.042,1.017,0.127
			c0.289,0.084,0.528,0.203,0.72,0.356c0.192,0.151,0.336,0.332,0.433,0.546c0.097,0.211,0.146,0.44,0.146,0.688
			s-0.049,0.478-0.146,0.689c-0.097,0.212-0.24,0.395-0.433,0.547c-0.191,0.15-0.431,0.269-0.72,0.353
			c-0.289,0.086-0.628,0.127-1.017,0.127c-0.39,0-0.73-0.041-1.022-0.127c-0.292-0.084-0.535-0.203-0.725-0.353
			c-0.192-0.153-0.335-0.335-0.43-0.547c-0.094-0.212-0.14-0.441-0.14-0.689s0.046-0.477,0.14-0.688
			c0.095-0.214,0.237-0.395,0.43-0.546c0.19-0.153,0.433-0.271,0.725-0.356C178.977,48.881,179.317,48.839,179.707,48.839z
			 M179.707,49.475c-0.558,0-0.966,0.105-1.225,0.314c-0.258,0.208-0.388,0.464-0.388,0.767c0,0.311,0.129,0.57,0.388,0.775
			c0.259,0.204,0.667,0.306,1.225,0.306c0.556,0,0.965-0.102,1.224-0.306c0.257-0.206,0.386-0.464,0.386-0.775
			s-0.129-0.567-0.386-0.772C180.672,49.578,180.263,49.475,179.707,49.475z M178.589,55.698c0.094,0,0.179,0.026,0.257,0.074
			c0.076,0.05,0.116,0.132,0.116,0.245v1.325c0,0.133,0.063,0.202,0.19,0.202h5.076c0.088,0,0.151,0.032,0.192,0.095
			c0.04,0.063,0.061,0.141,0.061,0.232c0,0.092-0.021,0.171-0.061,0.234c-0.041,0.063-0.104,0.095-0.192,0.095h-5.317
			c-0.262,0-0.443-0.05-0.544-0.153c-0.1-0.103-0.15-0.29-0.15-0.556v-1.474c0-0.113,0.04-0.195,0.116-0.245
			C178.41,55.724,178.494,55.698,178.589,55.698z M183.856,48.637c0.094,0,0.178,0.025,0.252,0.074
			c0.074,0.048,0.111,0.13,0.111,0.244v6.785c0,0.113-0.037,0.195-0.111,0.245c-0.074,0.049-0.158,0.074-0.252,0.074
			s-0.178-0.025-0.252-0.074c-0.074-0.05-0.11-0.132-0.11-0.245v-0.73h-1.853c-0.082,0-0.141-0.032-0.182-0.096
			c-0.041-0.062-0.061-0.141-0.061-0.233c0-0.084,0.02-0.158,0.061-0.221c0.041-0.063,0.1-0.095,0.182-0.095h1.853v-5.408
			c0-0.113,0.037-0.195,0.11-0.244C183.678,48.663,183.762,48.637,183.856,48.637z"/>
		<path fill="#58595B" d="M188.057,51.373c0.094,0,0.179,0.024,0.256,0.074c0.078,0.05,0.116,0.129,0.116,0.243v1.898
			c0.47-0.013,0.951-0.034,1.44-0.063c0.49-0.029,0.997-0.066,1.521-0.116c0.074-0.008,0.136,0.016,0.187,0.069
			c0.05,0.053,0.078,0.129,0.084,0.227c0.007,0.092-0.008,0.171-0.045,0.24c-0.037,0.066-0.096,0.108-0.175,0.121
			c-0.894,0.078-1.777,0.132-2.65,0.158c-0.872,0.029-1.776,0.043-2.709,0.043c-0.094,0-0.161-0.033-0.202-0.096
			c-0.04-0.063-0.059-0.14-0.059-0.232s0.02-0.17,0.059-0.235c0.041-0.063,0.108-0.095,0.202-0.095c0.268,0,0.537,0,0.806,0
			s0.541-0.003,0.816-0.011v-1.909c0-0.113,0.036-0.192,0.107-0.243C187.88,51.397,187.962,51.373,188.057,51.373z M190.755,49.375
			c0.1,0.103,0.152,0.287,0.152,0.556v0.678c0,0.327-0.019,0.636-0.052,0.928c-0.034,0.292-0.087,0.571-0.161,0.833
			c-0.028,0.097-0.081,0.166-0.161,0.206c-0.081,0.04-0.176,0.047-0.282,0.026c-0.095-0.028-0.167-0.077-0.218-0.148
			c-0.05-0.071-0.062-0.155-0.034-0.255c0.061-0.269,0.105-0.53,0.136-0.789c0.029-0.258,0.046-0.535,0.046-0.833v-0.488
			c0-0.076-0.017-0.129-0.046-0.153c-0.03-0.024-0.079-0.037-0.146-0.037h-3.272c-0.095,0-0.162-0.034-0.203-0.1
			c-0.04-0.068-0.06-0.147-0.06-0.24c0-0.098,0.02-0.179,0.06-0.243c0.041-0.063,0.108-0.096,0.203-0.096h3.494
			C190.472,49.22,190.654,49.271,190.755,49.375z M187.592,55.241c0.094,0,0.18,0.026,0.257,0.075s0.116,0.135,0.116,0.255v1.771
			c0,0.133,0.063,0.202,0.191,0.202h4.894c0.088,0,0.152,0.032,0.191,0.095c0.042,0.063,0.062,0.141,0.062,0.232
			c0,0.092-0.02,0.171-0.062,0.234c-0.04,0.063-0.103,0.095-0.191,0.095h-5.137c-0.261,0-0.443-0.05-0.543-0.153
			c-0.1-0.103-0.152-0.29-0.152-0.556v-1.919c0-0.12,0.04-0.206,0.116-0.255C187.413,55.268,187.499,55.241,187.592,55.241z
			 M192.678,48.637c0.095,0,0.179,0.025,0.253,0.074c0.072,0.048,0.11,0.13,0.11,0.244v2.713h1.148c0.094,0,0.161,0.034,0.201,0.103
			c0.041,0.066,0.061,0.145,0.061,0.237c0,0.099-0.02,0.182-0.061,0.25c-0.04,0.066-0.107,0.1-0.201,0.1h-1.148v3.212
			c0,0.113-0.038,0.193-0.11,0.244c-0.074,0.049-0.158,0.074-0.253,0.074c-0.092,0-0.177-0.025-0.252-0.074
			c-0.072-0.05-0.109-0.13-0.109-0.244v-6.616c0-0.113,0.037-0.195,0.109-0.244C192.501,48.663,192.585,48.637,192.678,48.637z"/>
	</g>
	<g>
		<linearGradient id="SVGID_1_" gradientUnits="userSpaceOnUse" x1="121.0874" y1="39.1748" x2="121.0874" y2="5.1044">
			<stop  offset="0" style="stop-color:#3B5AA8"/>
			<stop  offset="0.53" style="stop-color:#7D51A0"/>
			<stop  offset="1" style="stop-color:#C366A7"/>
		</linearGradient>
		<path fill="url(#SVGID_1_)" d="M122.274,35.059c0,4.517-1.659,6.434-8.002,6.434c-6.341,0-8-1.917-8-6.434
			c0-5.314,0.455-11.35,1.268-15.542c0.293-1.554,1.497-1.988,2.83-1.698c1.399,0.289,2.082,1.157,1.822,2.71
			c-0.261,1.482-0.489,3.289-0.685,5.205h5.953v-5.819c0-1.338,1.106-2.024,2.406-2.024c1.301,0,2.408,0.687,2.408,2.024V35.059z
			 M111.215,30.07c-0.098,1.555-0.129,3.037-0.129,4.337c0,2.097,0.39,2.603,3.187,2.603c2.798,0,3.188-0.506,3.188-2.603V30.07
			H111.215z M126.145,18.613c0-1.338,1.138-2.024,2.439-2.024s2.439,0.686,2.439,2.024v8.385h3.122c1.106,0,1.756,1.013,1.756,2.204
			c0,1.193-0.65,2.133-1.756,2.133h-3.122V44.6c0,1.193-1.138,1.988-2.439,1.988s-2.439-0.832-2.439-2.061V18.613z"/>
		<linearGradient id="SVGID_2_" gradientUnits="userSpaceOnUse" x1="152.02" y1="39.1748" x2="152.02" y2="5.1038">
			<stop  offset="0" style="stop-color:#3B5AA8"/>
			<stop  offset="0.53" style="stop-color:#7D51A0"/>
			<stop  offset="1" style="stop-color:#C366A7"/>
		</linearGradient>
		<path fill="url(#SVGID_2_)" d="M139.612,17.553c-1.138,0-1.854-0.759-1.854-2.205c0-1.409,0.716-2.205,1.854-2.205h8.749
			c2.927,0,4.229,1.265,4.229,4.157v5.204c0,2.891-1.301,4.156-4.229,4.156h-5.042c-0.26,0.904-0.39,1.988-0.39,2.964
			c0,2.168,0.976,2.854,2.927,2.854c2.603,0,5.465-0.65,7.254-1.516c1.007-0.47,2.114-0.037,2.537,1.155
			c0.423,1.229,0.195,2.386-0.976,2.928c-2.472,1.156-5.725,1.845-8.815,1.845c-5.497,0-7.838-1.845-7.838-5.784
			c0-1.626,0.195-3.108,0.619-4.446c-1.009-0.072-1.561-0.868-1.561-2.133c0-1.337,0.65-2.204,1.756-2.204h7.513
			c1.042,0,1.367-0.218,1.367-1.446V19c0-1.229-0.326-1.446-1.367-1.446H139.612z M157.208,13.686c0-1.338,1.139-2.024,2.439-2.024
			c1.301,0,2.439,0.687,2.439,2.024v8.385h3.124c1.106,0,1.756,1.013,1.756,2.205c0,1.193-0.65,2.133-1.756,2.133h-3.124v13.264
			c0,1.192-1.138,1.988-2.439,1.988c-1.3,0-2.439-0.831-2.439-2.06V13.686z"/>
		<linearGradient id="SVGID_3_" gradientUnits="userSpaceOnUse" x1="181.4326" y1="39.1748" x2="181.4326" y2="5.1044">
			<stop  offset="0" style="stop-color:#3B5AA8"/>
			<stop  offset="0.53" style="stop-color:#7D51A0"/>
			<stop  offset="1" style="stop-color:#C366A7"/>
		</linearGradient>
		<path fill="url(#SVGID_3_)" d="M168.625,40.156c-0.52-1.303-0.064-2.855,1.172-3.325c6.406-2.423,9.823-6.796,9.823-11.314
			c0-1.808-0.749-2.53-2.603-2.53h-6.343c-1.105,0-1.821-0.868-1.821-2.205c0-1.336,0.716-2.205,1.821-2.205h8.815
			c3.35,0,5.204,2.097,5.204,5.964c0,7.733-4.781,13.988-12.978,16.879C170.35,41.891,169.146,41.456,168.625,40.156z
			 M194.451,44.565c0,1.229-0.911,2.023-2.439,2.023c-1.53,0-2.439-0.795-2.439-2.023V18.613c0-1.229,0.91-2.024,2.439-2.024
			c1.528,0,2.439,0.795,2.439,2.024V44.565z"/>
		<g>
			<linearGradient id="SVGID_4_" gradientUnits="userSpaceOnUse" x1="96.8862" y1="39.1738" x2="96.8862" y2="5.1038">
				<stop  offset="0" style="stop-color:#3B5AA8"/>
				<stop  offset="0.53" style="stop-color:#7D51A0"/>
				<stop  offset="1" style="stop-color:#C366A7"/>
			</linearGradient>
			<path fill="url(#SVGID_4_)" d="M94.008,14.185c-1.009,0-1.497,0.794-1.497,2.024c0,1.229,0.488,1.952,1.497,1.952h2.569v1.518
				c0,1.229,0.813,2.023,2.342,2.023c1.529,0,2.341-0.794,2.341-2.023V6.559c0-1.229-0.812-2.024-2.341-2.024
				c-1.528,0-2.342,0.796-2.342,2.024V7.57h-2.569c-1.009,0-1.497,0.832-1.497,2.061c0,1.229,0.488,1.988,1.497,1.988h2.569v2.566
				H94.008z"/>
			<linearGradient id="SVGID_5_" gradientUnits="userSpaceOnUse" x1="91.5259" y1="39.1753" x2="91.5259" y2="5.1036">
				<stop  offset="0" style="stop-color:#3B5AA8"/>
				<stop  offset="0.53" style="stop-color:#7D51A0"/>
				<stop  offset="1" style="stop-color:#C366A7"/>
			</linearGradient>
			<path fill="url(#SVGID_5_)" d="M101.846,35.871c-0.292-1.121-1.202-1.662-2.439-1.265c-1.756,0.579-5.139,0.976-8.033,0.976
				c-3.514,0-4.197-0.434-4.197-1.48c0-0.398,0-0.796,0.066-1.194h10.115c2.603,0,3.902-1.229,3.902-3.614v-2.891
				c0-2.386-1.3-3.615-3.902-3.615H83.146c-0.976,0-1.563,0.868-1.563,1.988s0.587,1.988,1.563,1.988h12.262
				c0.617,0,0.878,0.181,0.878,0.723v0.868c0,0.542-0.228,0.722-0.878,0.722h-12.75c-0.977,0-1.563,0.795-1.563,1.917
				c0,1.047,0.488,1.806,1.366,1.915c-0.195,0.688-0.292,1.482-0.292,2.241c0,3.109,1.983,4.482,9.204,4.482
				c4.13,0,7.188-0.506,9.302-1.193C101.879,38.041,102.139,36.955,101.846,35.871z"/>
			<linearGradient id="SVGID_6_" gradientUnits="userSpaceOnUse" x1="83.373" y1="39.1743" x2="83.373" y2="5.104">
				<stop  offset="0" style="stop-color:#3B5AA8"/>
				<stop  offset="0.53" style="stop-color:#7D51A0"/>
				<stop  offset="1" style="stop-color:#C366A7"/>
			</linearGradient>
			<path fill="url(#SVGID_6_)" d="M91.7,14.547V7.101c0-1.337-1.042-2.024-2.408-2.024c-1.366,0-2.407,0.687-2.407,2.024v2.35
				h-6.472c0.13-0.542,0.261-1.048,0.423-1.554c0.423-1.41-0.325-2.422-1.691-2.819c-1.399-0.397-2.472,0.073-2.927,1.482
				c-0.749,2.313-1.171,5.204-1.171,7.988c0,4.662,1.756,6.18,8.326,6.18C89.943,20.727,91.7,19.209,91.7,14.547z M81.533,17.21
				l0.243-1.593l-1.175-1.103c-0.502-0.471-0.359-0.943,0.32-1.055l1.59-0.261l0.686-1.458c0.115-0.245,0.261-0.395,0.416-0.45
				c0.001,0,0.002,0,0.004-0.001c0.009-0.003,0.02-0.006,0.03-0.009c0.001,0,0.003,0,0.005-0.001
				c0.009-0.002,0.019-0.004,0.028-0.006c0.002-0.001,0.005-0.001,0.006-0.001c0.009-0.001,0.019-0.002,0.029-0.003
				c0.001,0,0.004,0,0.006,0c0.009,0,0.019-0.001,0.028,0c0.002,0,0.005-0.001,0.008-0.001c0.009,0.001,0.019,0.001,0.028,0.002
				c0.002,0.001,0.004,0.001,0.006,0.001c0.011,0.001,0.019,0.002,0.029,0.004c0.001,0,0.002,0.001,0.005,0.001
				c0.041,0.009,0.082,0.023,0.122,0.044c0.004,0.001,0.008,0.004,0.012,0.007c0.007,0.003,0.013,0.008,0.02,0.012
				c0.005,0.003,0.01,0.006,0.016,0.009c0.005,0.004,0.012,0.009,0.019,0.013c0.005,0.004,0.01,0.008,0.016,0.012
				c0.007,0.005,0.012,0.009,0.019,0.015c0.005,0.005,0.011,0.009,0.016,0.015c0.005,0.004,0.012,0.009,0.018,0.015
				c0.005,0.006,0.012,0.012,0.017,0.017c0.005,0.005,0.01,0.01,0.016,0.016c0.007,0.006,0.012,0.013,0.019,0.02
				c0.004,0.005,0.009,0.011,0.015,0.017c0.006,0.007,0.012,0.014,0.017,0.021c0.005,0.006,0.01,0.012,0.016,0.019
				c0.005,0.007,0.011,0.015,0.017,0.024c0.004,0.006,0.009,0.012,0.015,0.019c0.005,0.009,0.012,0.019,0.017,0.027
				c0.004,0.007,0.009,0.013,0.013,0.02c0.006,0.011,0.013,0.021,0.02,0.033c0.002,0.006,0.006,0.011,0.009,0.017
				c0.011,0.018,0.02,0.035,0.029,0.054l0.741,1.432l1.598,0.202c0.683,0.086,0.845,0.552,0.361,1.042l-1.133,1.146l0.302,1.583
				c0.004,0.021,0.008,0.041,0.01,0.061c0.001,0.007,0.001,0.013,0.003,0.019c0.001,0.013,0.004,0.027,0.005,0.04
				c0,0.008,0.001,0.016,0.001,0.024c0.001,0.01,0.002,0.022,0.002,0.033c0,0.008,0.001,0.016,0.001,0.024
				c0,0.011,0,0.021,0.001,0.03c0,0.008-0.001,0.017-0.001,0.024c0,0.009,0,0.019,0,0.028c0,0.008-0.001,0.016-0.001,0.024
				c-0.001,0.008-0.001,0.017-0.002,0.025c0,0.008-0.001,0.016-0.002,0.024c-0.001,0.008-0.003,0.016-0.003,0.023
				c-0.002,0.008-0.002,0.016-0.005,0.024c-0.001,0.006-0.003,0.015-0.004,0.021c-0.001,0.008-0.004,0.015-0.005,0.022
				c-0.003,0.006-0.004,0.013-0.007,0.02c-0.001,0.008-0.004,0.015-0.006,0.022c-0.003,0.006-0.004,0.012-0.007,0.018
				c-0.002,0.007-0.005,0.014-0.008,0.021c-0.003,0.005-0.005,0.011-0.008,0.016c-0.003,0.007-0.007,0.014-0.011,0.021
				c-0.002,0.005-0.005,0.01-0.008,0.015c-0.004,0.006-0.008,0.013-0.012,0.02c-0.003,0.004-0.005,0.008-0.008,0.012
				c-0.005,0.006-0.009,0.013-0.014,0.019c-0.003,0.003-0.005,0.007-0.008,0.01c-0.005,0.006-0.011,0.013-0.016,0.018
				c-0.004,0.002-0.006,0.006-0.009,0.009c-0.005,0.005-0.012,0.011-0.019,0.017c-0.002,0.002-0.005,0.004-0.008,0.006
				c-0.006,0.005-0.013,0.011-0.02,0.016c-0.003,0.002-0.005,0.003-0.008,0.005c-0.008,0.005-0.016,0.01-0.024,0.014
				c-0.002,0.002-0.004,0.003-0.007,0.004c-0.008,0.005-0.017,0.009-0.026,0.014c-0.001,0-0.002,0-0.004,0.002
				c-0.01,0.004-0.021,0.008-0.032,0.012v0.001c-0.14,0.05-0.324,0.033-0.538-0.059l-0.001-0.001l0,0l0,0l0,0
				c-0.023-0.011-0.049-0.021-0.072-0.035l-1.441-0.722l-1.412,0.776C81.833,18.173,81.429,17.891,81.533,17.21z"/>
		</g>
	</g>
</g>
</svg>
